<svg xmlns="http://www.w3.org/2000/svg" xmlns:xlink="http://www.w3.org/1999/xlink" width="500" zoomAndPan="magnify" viewBox="0 0 375 225" height="300" preserveAspectRatio="xMidYMid meet" version="1.0"><defs><clipPath id="8a4792a98e"><path d="M 109.808594 15.386719 L 265.058594 15.386719 L 265.058594 209.636719 L 109.808594 209.636719 Z M 109.808594 15.386719 " clip-rule="nonzero"/></clipPath></defs><g clip-path="url(#8a4792a98e)"><path fill="#8cbcdc" d="M 255.476562 41.285156 C 257.257812 41.285156 258.710938 42.738281 258.710938 44.519531 L 258.710938 199.890625 C 258.710938 201.675781 257.257812 203.128906 255.476562 203.128906 L 138.945312 203.128906 C 137.164062 203.128906 135.710938 201.675781 135.710938 199.890625 L 135.710938 190.179688 L 236.054688 190.179688 C 241.414062 190.179688 245.765625 185.832031 245.765625 180.472656 L 245.765625 41.285156 Z M 116.289062 180.472656 L 116.289062 54.230469 L 138.945312 54.230469 C 144.308594 54.230469 148.65625 49.882812 148.65625 44.519531 L 148.65625 21.863281 L 236.054688 21.863281 C 237.835938 21.863281 239.289062 23.316406 239.289062 25.097656 L 239.289062 180.472656 C 239.289062 182.253906 237.835938 183.707031 236.054688 183.707031 L 119.523438 183.707031 C 117.742188 183.707031 116.289062 182.253906 116.289062 180.472656 Z M 142.183594 26.4375 L 142.183594 44.519531 C 142.183594 46.304688 140.730469 47.757812 138.945312 47.757812 L 120.863281 47.757812 Z M 236.054688 15.386719 L 145.421875 15.386719 C 144.558594 15.386719 143.738281 15.730469 143.132812 16.335938 L 110.761719 48.707031 C 110.15625 49.3125 109.8125 50.132812 109.8125 50.996094 L 109.8125 180.472656 C 109.8125 185.832031 114.164062 190.179688 119.523438 190.179688 L 129.234375 190.179688 L 129.234375 199.890625 C 129.234375 205.253906 133.585938 209.601562 138.945312 209.601562 L 255.476562 209.601562 C 260.835938 209.601562 265.1875 205.253906 265.1875 199.890625 L 265.1875 44.519531 C 265.1875 39.160156 260.835938 34.808594 255.476562 34.808594 L 245.765625 34.808594 L 245.765625 25.097656 C 245.765625 19.738281 241.414062 15.386719 236.054688 15.386719 " fill-opacity="1" fill-rule="nonzero"/></g><path fill="#8cbcdc" d="M 132.472656 141.628906 L 223.105469 141.628906 C 224.890625 141.628906 226.34375 140.171875 226.34375 138.390625 C 226.34375 136.609375 224.890625 135.152344 223.105469 135.152344 L 132.472656 135.152344 C 130.691406 135.152344 129.234375 136.609375 129.234375 138.390625 C 129.234375 140.171875 130.691406 141.628906 132.472656 141.628906 " fill-opacity="1" fill-rule="nonzero"/><path fill="#8cbcdc" d="M 171.316406 151.339844 L 168.078125 151.339844 C 166.296875 151.339844 164.839844 152.792969 164.839844 154.574219 C 164.839844 156.359375 166.296875 157.8125 168.078125 157.8125 L 171.316406 157.8125 C 173.097656 157.8125 174.550781 156.359375 174.550781 154.574219 C 174.550781 152.792969 173.097656 151.339844 171.316406 151.339844 " fill-opacity="1" fill-rule="nonzero"/><path fill="#8cbcdc" d="M 151.894531 157.8125 C 153.675781 157.8125 155.128906 156.359375 155.128906 154.574219 C 155.128906 152.792969 153.675781 151.339844 151.894531 151.339844 L 132.472656 151.339844 C 130.691406 151.339844 129.234375 152.792969 129.234375 154.574219 C 129.234375 156.359375 130.691406 157.8125 132.472656 157.8125 L 151.894531 157.8125 " fill-opacity="1" fill-rule="nonzero"/><path fill="#8cbcdc" d="M 132.472656 125.441406 L 142.183594 125.441406 C 143.964844 125.441406 145.421875 123.988281 145.421875 122.207031 C 145.421875 120.421875 143.964844 118.96875 142.183594 118.96875 L 132.472656 118.96875 C 130.691406 118.96875 129.234375 120.421875 129.234375 122.207031 C 129.234375 123.988281 130.691406 125.441406 132.472656 125.441406 " fill-opacity="1" fill-rule="nonzero"/><path fill="#8cbcdc" d="M 155.128906 122.207031 C 155.128906 123.988281 156.585938 125.441406 158.367188 125.441406 L 197.210938 125.441406 C 198.992188 125.441406 200.449219 123.988281 200.449219 122.207031 C 200.449219 120.421875 198.992188 118.96875 197.210938 118.96875 L 158.367188 118.96875 C 156.585938 118.96875 155.128906 120.421875 155.128906 122.207031 " fill-opacity="1" fill-rule="nonzero"/><path fill="#8cbcdc" d="M 213.394531 118.96875 C 211.613281 118.96875 210.160156 120.421875 210.160156 122.207031 C 210.160156 123.988281 211.613281 125.441406 213.394531 125.441406 L 223.105469 125.441406 C 224.890625 125.441406 226.34375 123.988281 226.34375 122.207031 C 226.34375 120.421875 224.890625 118.96875 223.105469 118.96875 L 213.394531 118.96875 " fill-opacity="1" fill-rule="nonzero"/><path fill="#8cbcdc" d="M 152.84375 108.308594 C 153.472656 108.941406 154.296875 109.257812 155.128906 109.257812 C 155.964844 109.257812 156.789062 108.941406 157.417969 108.308594 C 158.683594 107.046875 158.683594 104.996094 157.417969 103.734375 L 140.285156 86.601562 L 157.417969 69.46875 C 158.683594 68.203125 158.683594 66.15625 157.417969 64.890625 C 156.15625 63.625 154.105469 63.625 152.84375 64.890625 L 133.421875 84.3125 C 132.15625 85.574219 132.15625 87.625 133.421875 88.890625 L 152.84375 108.308594 " fill-opacity="1" fill-rule="nonzero"/><path fill="#8cbcdc" d="M 198.160156 108.308594 C 198.792969 108.941406 199.613281 109.257812 200.449219 109.257812 C 201.28125 109.257812 202.105469 108.941406 202.734375 108.308594 L 222.15625 88.890625 C 223.421875 87.625 223.421875 85.574219 222.15625 84.3125 L 202.734375 64.890625 C 201.472656 63.625 199.421875 63.625 198.160156 64.890625 C 196.894531 66.15625 196.894531 68.203125 198.160156 69.46875 L 215.292969 86.601562 L 198.160156 103.734375 C 196.894531 104.996094 196.894531 107.046875 198.160156 108.308594 " fill-opacity="1" fill-rule="nonzero"/><path fill="#8cbcdc" d="M 166.625 108.917969 C 167.09375 109.144531 167.585938 109.257812 168.078125 109.257812 C 169.265625 109.257812 170.40625 108.601562 170.972656 107.476562 L 190.394531 68.632812 C 191.191406 67.027344 190.546875 65.078125 188.953125 64.285156 C 187.347656 63.488281 185.402344 64.132812 184.605469 65.726562 L 165.183594 104.566406 C 164.386719 106.171875 165.03125 108.121094 166.625 108.917969 " fill-opacity="1" fill-rule="nonzero"/></svg>