<svg xmlns="http://www.w3.org/2000/svg" xmlns:xlink="http://www.w3.org/1999/xlink" width="500" zoomAndPan="magnify" viewBox="0 0 375 225" height="300" preserveAspectRatio="xMidYMid meet" version="1.0"><path fill="#8cbcdc" d="M 267.539062 36.65625 C 266.945312 34.628906 265.363281 33.046875 263.332031 32.449219 C 263.332031 32.449219 210.421875 16.703125 166.886719 60.230469 C 145.433594 81.683594 123.113281 116.792969 121.398438 136.921875 C 121.242188 138.742188 121.894531 140.550781 123.195312 141.839844 L 158.148438 176.792969 C 159.441406 178.09375 161.246094 178.75 163.070312 178.589844 C 183.195312 176.878906 218.308594 154.554688 239.757812 133.101562 C 283.285156 89.570312 267.539062 36.65625 267.539062 36.65625 Z M 256.40625 43.589844 C 258.621094 54.953125 262.820312 92.46875 230.972656 124.316406 C 212.507812 142.785156 183.261719 162.621094 164.777344 165.851562 C 164.777344 165.851562 134.136719 135.214844 134.136719 135.214844 C 137.375 116.726562 157.207031 87.480469 175.675781 69.019531 C 207.523438 37.171875 245.042969 41.371094 256.398438 43.582031 Z M 256.40625 43.589844 " fill-opacity="1" fill-rule="evenodd"/><path fill="#8cbcdc" d="M 231.019531 68.96875 C 220.558594 58.507812 203.5625 58.507812 193.101562 68.96875 C 182.640625 79.429688 182.640625 96.425781 193.101562 106.886719 C 203.5625 117.347656 220.558594 117.347656 231.019531 106.886719 C 241.480469 96.425781 241.480469 79.429688 231.019531 68.96875 Z M 222.234375 77.757812 C 227.847656 83.371094 227.847656 92.484375 222.234375 98.101562 C 216.617188 103.714844 207.507812 103.714844 201.890625 98.101562 C 196.273438 92.484375 196.273438 83.371094 201.890625 77.757812 C 207.507812 72.140625 216.617188 72.140625 222.234375 77.757812 Z M 222.234375 77.757812 " fill-opacity="1" fill-rule="evenodd"/><path fill="#8cbcdc" d="M 196.234375 154.074219 L 145.914062 103.757812 C 143.496094 101.339844 139.554688 101.339844 137.136719 103.757812 C 134.710938 106.183594 134.710938 110.117188 137.136719 112.546875 L 187.445312 162.855469 C 189.871094 165.28125 193.808594 165.28125 196.234375 162.855469 C 198.652344 160.4375 198.652344 156.492188 196.234375 154.074219 Z M 196.234375 154.074219 " fill-opacity="1" fill-rule="evenodd"/><path fill="#8cbcdc" d="M 208.789062 148.542969 C 208.789062 148.542969 207.539062 162.234375 206.679688 171.71875 C 206.363281 175.179688 204.335938 178.242188 201.277344 179.890625 L 180.40625 191.132812 C 180.40625 191.132812 180.40625 172.40625 180.40625 172.40625 C 180.40625 168.976562 177.621094 166.191406 174.191406 166.191406 C 170.765625 166.191406 167.980469 168.976562 167.980469 172.40625 L 167.980469 201.535156 C 167.980469 203.722656 169.132812 205.75 171.003906 206.871094 C 172.882812 207.988281 175.210938 208.046875 177.140625 207 C 177.140625 207 196.078125 196.804688 207.167969 190.832031 C 213.902344 187.214844 218.363281 180.457031 219.050781 172.84375 C 219.914062 163.359375 221.164062 149.660156 221.164062 149.660156 C 221.472656 146.246094 218.953125 143.222656 215.539062 142.917969 C 212.121094 142.601562 209.097656 145.121094 208.789062 148.542969 Z M 208.789062 148.542969 " fill-opacity="1" fill-rule="evenodd"/><path fill="#8cbcdc" d="M 150.332031 78.824219 C 150.332031 78.824219 136.628906 80.078125 127.148438 80.9375 C 119.535156 81.625 112.777344 86.089844 109.15625 92.824219 C 103.183594 103.914062 92.988281 122.847656 92.988281 122.847656 C 91.945312 124.777344 92.003906 127.105469 93.121094 128.984375 C 94.238281 130.859375 96.269531 132.007812 98.457031 132.007812 L 127.585938 132.007812 C 131.015625 132.007812 133.796875 129.226562 133.796875 125.796875 C 133.796875 122.367188 131.015625 119.585938 127.585938 119.585938 L 108.859375 119.585938 L 120.097656 98.710938 C 121.746094 95.65625 124.8125 93.628906 128.273438 93.3125 C 137.757812 92.449219 151.449219 91.199219 151.449219 91.199219 C 154.871094 90.894531 157.386719 87.871094 157.074219 84.449219 C 156.765625 81.039062 153.742188 78.519531 150.332031 78.824219 Z M 150.332031 78.824219 " fill-opacity="1" fill-rule="evenodd"/><path fill="#8cbcdc" d="M 110.140625 151.929688 L 96.972656 165.097656 C 94.554688 167.527344 94.554688 171.460938 96.972656 173.886719 C 99.398438 176.304688 103.335938 176.304688 105.761719 173.886719 L 118.929688 160.71875 C 121.355469 158.289062 121.355469 154.355469 118.929688 151.929688 C 116.503906 149.503906 112.570312 149.503906 110.140625 151.929688 Z M 110.140625 151.929688 " fill-opacity="1" fill-rule="evenodd"/><path fill="#8cbcdc" d="M 124.710938 166.5 L 99.886719 191.3125 C 97.460938 193.742188 97.460938 197.675781 99.886719 200.101562 C 102.316406 202.527344 106.25 202.527344 108.675781 200.101562 L 133.492188 175.277344 C 135.917969 172.859375 135.917969 168.917969 133.492188 166.5 C 131.074219 164.070312 127.128906 164.070312 124.710938 166.5 Z M 124.710938 166.5 " fill-opacity="1" fill-rule="evenodd"/><path fill="#8cbcdc" d="M 139.273438 181.058594 L 126.101562 194.230469 C 123.683594 196.65625 123.683594 200.589844 126.101562 203.019531 C 128.53125 205.4375 132.464844 205.4375 134.890625 203.019531 L 148.0625 189.847656 C 150.488281 187.421875 150.488281 183.488281 148.0625 181.058594 C 145.632812 178.632812 141.699219 178.632812 139.273438 181.058594 Z M 139.273438 181.058594 " fill-opacity="1" fill-rule="evenodd"/></svg>