<svg xmlns="http://www.w3.org/2000/svg" xmlns:xlink="http://www.w3.org/1999/xlink" width="500" zoomAndPan="magnify" viewBox="0 0 375 225" height="300" preserveAspectRatio="xMidYMid meet" version="1.0"><defs><clipPath id="5132ea9f36"><path d="M 49.488281 100 L 181 100 L 181 153.363281 L 49.488281 153.363281 Z M 49.488281 100 " clip-rule="nonzero"/></clipPath><clipPath id="59b4f43c24"><path d="M 127 71.613281 L 186 71.613281 L 186 133 L 127 133 Z M 127 71.613281 " clip-rule="nonzero"/></clipPath><clipPath id="202bdacc05"><path d="M 194 100 L 325.488281 100 L 325.488281 153.363281 L 194 153.363281 Z M 194 100 " clip-rule="nonzero"/></clipPath><clipPath id="801174d207"><path d="M 189 71.613281 L 248 71.613281 L 248 133 L 189 133 Z M 189 71.613281 " clip-rule="nonzero"/></clipPath></defs><g clip-path="url(#5132ea9f36)"><path fill="#8cbcdc" d="M 49.808594 100.984375 L 76.527344 153.375 L 61.183594 111.640625 C 61.183594 111.640625 144.601562 118.652344 180.980469 153.375 C 180.980469 153.375 167.621094 112.6875 49.808594 100.984375 Z M 49.808594 100.984375 " fill-opacity="1" fill-rule="nonzero"/></g><path fill="#8cbcdc" d="M 92.703125 81.773438 L 92.703125 100.984375 C 152.550781 108.660156 185.5625 142.886719 185.5625 142.886719 C 161.4375 100.320312 92.703125 81.773438 92.703125 81.773438 Z M 92.703125 81.773438 " fill-opacity="1" fill-rule="nonzero"/><g clip-path="url(#59b4f43c24)"><path fill="#8cbcdc" d="M 127.871094 71.613281 L 127.871094 88.617188 C 165.910156 103.964844 185.507812 132.671875 185.507812 132.671875 C 172.09375 92.980469 127.871094 71.613281 127.871094 71.613281 Z M 127.871094 71.613281 " fill-opacity="1" fill-rule="nonzero"/></g><g clip-path="url(#202bdacc05)"><path fill="#8cbcdc" d="M 325.183594 100.984375 C 207.371094 112.6875 194.011719 153.375 194.011719 153.375 C 230.390625 118.652344 313.808594 111.640625 313.808594 111.640625 L 298.460938 153.375 Z M 325.183594 100.984375 " fill-opacity="1" fill-rule="nonzero"/></g><path fill="#8cbcdc" d="M 282.339844 81.773438 C 282.339844 81.773438 213.609375 100.265625 189.484375 142.832031 C 189.484375 142.832031 222.496094 108.601562 282.339844 100.929688 Z M 282.339844 81.773438 " fill-opacity="1" fill-rule="nonzero"/><g clip-path="url(#801174d207)"><path fill="#8cbcdc" d="M 247.121094 88.617188 L 247.121094 71.613281 C 247.121094 71.613281 202.898438 92.980469 189.484375 132.671875 C 189.484375 132.671875 209.082031 103.964844 247.121094 88.617188 Z M 247.121094 88.617188 " fill-opacity="1" fill-rule="nonzero"/></g></svg>