<svg xmlns="http://www.w3.org/2000/svg" xmlns:xlink="http://www.w3.org/1999/xlink" width="500" zoomAndPan="magnify" viewBox="0 0 375 374.999991" height="500" preserveAspectRatio="xMidYMid meet" version="1.0"><defs><clipPath id="f60dc26a87"><path d="M 22.082031 60 L 334 60 L 334 314.921875 L 22.082031 314.921875 Z M 22.082031 60 " clip-rule="nonzero"/></clipPath><clipPath id="b4202213cc"><path d="M 22.082031 122 L 334 122 L 334 133 L 22.082031 133 Z M 22.082031 122 " clip-rule="nonzero"/></clipPath><clipPath id="cbef84e29d"><path d="M 275 163 L 352.832031 163 L 352.832031 267 L 275 267 Z M 275 163 " clip-rule="nonzero"/></clipPath></defs><g clip-path="url(#f60dc26a87)"><path fill="#8cbcdc" d="M 308.953125 314.960938 L 46.304688 314.960938 C 32.949219 314.960938 22.082031 304.199219 22.082031 290.972656 L 22.082031 84.003906 C 22.082031 70.777344 32.949219 60.015625 46.304688 60.015625 L 308.953125 60.015625 C 322.296875 60.015625 333.148438 70.777344 333.148438 84.003906 L 333.148438 168.921875 C 333.148438 171.777344 330.835938 174.089844 327.980469 174.089844 C 325.125 174.089844 322.8125 171.777344 322.8125 168.921875 L 322.8125 84.003906 C 322.8125 76.476562 316.59375 70.355469 308.953125 70.355469 L 46.304688 70.355469 C 38.652344 70.355469 32.421875 76.476562 32.421875 84.003906 L 32.421875 290.972656 C 32.421875 298.5 38.652344 304.621094 46.304688 304.621094 L 308.953125 304.621094 C 316.59375 304.621094 322.8125 298.5 322.8125 290.972656 L 322.8125 251.253906 C 322.8125 248.398438 325.125 246.082031 327.980469 246.082031 C 330.835938 246.082031 333.148438 248.398438 333.148438 251.253906 L 333.148438 290.972656 C 333.148438 304.199219 322.296875 314.960938 308.953125 314.960938 Z M 308.953125 314.960938 " fill-opacity="1" fill-rule="nonzero"/></g><g clip-path="url(#b4202213cc)"><path fill="#8cbcdc" d="M 327.980469 132.863281 L 27.253906 132.863281 C 24.398438 132.863281 22.082031 130.546875 22.082031 127.691406 C 22.082031 124.839844 24.398438 122.523438 27.253906 122.523438 L 327.980469 122.523438 C 330.835938 122.523438 333.148438 124.839844 333.148438 127.691406 C 333.148438 130.546875 330.835938 132.863281 327.980469 132.863281 Z M 327.980469 132.863281 " fill-opacity="1" fill-rule="nonzero"/></g><path fill="#8cbcdc" d="M 73.449219 113.742188 L 64.671875 113.742188 C 57.460938 113.742188 51.59375 107.929688 51.59375 100.785156 L 51.59375 92.09375 C 51.59375 84.949219 57.460938 79.132812 64.671875 79.132812 L 73.449219 79.132812 C 80.660156 79.132812 86.527344 84.949219 86.527344 92.09375 L 86.527344 100.785156 C 86.527344 107.929688 80.660156 113.742188 73.449219 113.742188 Z M 64.671875 89.472656 C 63.160156 89.472656 61.929688 90.648438 61.929688 92.09375 L 61.929688 100.785156 C 61.929688 102.230469 63.160156 103.40625 64.671875 103.40625 L 73.449219 103.40625 C 74.960938 103.40625 76.191406 102.230469 76.191406 100.785156 L 76.191406 92.09375 C 76.191406 90.648438 74.960938 89.472656 73.449219 89.472656 Z M 64.671875 89.472656 " fill-opacity="1" fill-rule="nonzero"/><path fill="#8cbcdc" d="M 286.1875 113.742188 L 201.019531 113.742188 C 191.382812 113.742188 183.539062 105.980469 183.539062 96.4375 C 183.539062 86.898438 191.382812 79.136719 201.019531 79.136719 L 286.1875 79.136719 C 295.824219 79.136719 303.667969 86.898438 303.667969 96.4375 C 303.667969 105.980469 295.824219 113.742188 286.1875 113.742188 Z M 201.019531 89.472656 C 197.082031 89.472656 193.878906 92.597656 193.878906 96.4375 C 193.878906 100.28125 197.082031 103.40625 201.019531 103.40625 L 286.1875 103.40625 C 290.125 103.40625 293.328125 100.28125 293.328125 96.4375 C 293.328125 92.597656 290.125 89.472656 286.1875 89.472656 Z M 201.019531 89.472656 " fill-opacity="1" fill-rule="nonzero"/><path fill="#8cbcdc" d="M 120 113.742188 L 111.199219 113.742188 C 104 113.742188 98.144531 107.929688 98.144531 100.785156 L 98.144531 92.09375 C 98.144531 84.949219 104 79.132812 111.199219 79.132812 L 120 79.132812 C 127.199219 79.132812 133.054688 84.949219 133.054688 92.09375 L 133.054688 100.785156 C 133.054688 107.929688 127.199219 113.742188 120 113.742188 Z M 111.199219 89.472656 C 109.726562 89.472656 108.480469 90.671875 108.480469 92.09375 L 108.480469 100.785156 C 108.480469 102.207031 109.726562 103.40625 111.199219 103.40625 L 120 103.40625 C 121.496094 103.40625 122.714844 102.230469 122.714844 100.785156 L 122.714844 92.09375 C 122.714844 90.648438 121.496094 89.472656 120 89.472656 Z M 111.199219 89.472656 " fill-opacity="1" fill-rule="nonzero"/><g clip-path="url(#cbef84e29d)"><path fill="#8cbcdc" d="M 281.125 266.171875 C 279.042969 266.171875 277.082031 264.90625 276.296875 262.84375 C 275.277344 260.179688 276.613281 257.191406 279.28125 256.171875 C 291.035156 251.679688 302.640625 248.652344 313.769531 247.164062 C 323.511719 245.863281 333.175781 245.707031 342.578125 246.691406 L 342.578125 174.757812 C 323.652344 172.554688 304.101562 175.425781 282.96875 183.5 C 280.300781 184.515625 277.3125 183.179688 276.296875 180.515625 C 275.277344 177.847656 276.613281 174.859375 279.28125 173.839844 C 291.035156 169.351562 302.640625 166.320312 313.769531 164.835938 C 325.589844 163.257812 337.292969 163.363281 348.554688 165.148438 C 351.066406 165.546875 352.914062 167.710938 352.914062 170.253906 L 352.914062 252.585938 C 352.914062 254.097656 352.253906 255.535156 351.101562 256.515625 C 349.953125 257.496094 348.429688 257.925781 346.9375 257.691406 C 326.65625 254.472656 305.730469 257.136719 282.96875 265.828125 C 282.363281 266.0625 281.738281 266.171875 281.125 266.171875 Z M 281.125 266.171875 " fill-opacity="1" fill-rule="nonzero"/></g><path fill="#8cbcdc" d="M 299.566406 203.011719 C 297.476562 203.011719 295.503906 201.730469 294.726562 199.65625 C 293.722656 196.980469 295.078125 194.003906 297.75 193 C 305.21875 190.195312 316.773438 186.90625 329.402344 187.144531 C 332.253906 187.199219 334.527344 189.554688 334.472656 192.410156 C 334.417969 195.230469 332.117188 197.480469 329.304688 197.480469 C 329.273438 197.480469 329.238281 197.480469 329.207031 197.480469 C 318.21875 197.273438 308.007812 200.195312 301.382812 202.679688 C 300.785156 202.902344 300.171875 203.011719 299.566406 203.011719 Z M 299.566406 203.011719 " fill-opacity="1" fill-rule="nonzero"/><path fill="#8cbcdc" d="M 299.566406 222.882812 C 297.476562 222.882812 295.503906 221.601562 294.726562 219.527344 C 293.722656 216.855469 295.078125 213.875 297.75 212.871094 C 305.183594 210.085938 316.699219 206.804688 329.390625 207.015625 C 332.246094 207.066406 334.519531 209.417969 334.472656 212.269531 C 334.425781 215.125 332.070312 217.402344 329.21875 217.355469 C 317.570312 217.15625 306.78125 220.527344 301.382812 222.550781 C 300.785156 222.777344 300.171875 222.882812 299.566406 222.882812 Z M 299.566406 222.882812 " fill-opacity="1" fill-rule="nonzero"/><path fill="#8cbcdc" d="M 299.566406 242.78125 C 297.476562 242.78125 295.503906 241.5 294.726562 239.425781 C 293.722656 236.753906 295.078125 233.773438 297.75 232.769531 C 305.210938 229.972656 316.753906 226.683594 329.390625 226.890625 C 332.246094 226.9375 334.519531 229.289062 334.472656 232.144531 C 334.425781 235 332.070312 237.269531 329.21875 237.226562 C 318.210938 237.039062 308.003906 239.964844 301.382812 242.449219 C 300.785156 242.675781 300.171875 242.78125 299.566406 242.78125 Z M 299.566406 242.78125 " fill-opacity="1" fill-rule="nonzero"/><path fill="#8cbcdc" d="M 281.125 266.171875 C 280.503906 266.171875 279.878906 266.058594 279.28125 265.828125 C 256.519531 257.136719 235.59375 254.472656 215.3125 257.691406 C 213.816406 257.925781 212.296875 257.496094 211.144531 256.515625 C 209.996094 255.535156 209.332031 254.097656 209.332031 252.585938 L 209.332031 170.253906 C 209.332031 167.710938 211.183594 165.546875 213.691406 165.148438 C 224.957031 163.363281 236.660156 163.257812 248.476562 164.832031 C 259.609375 166.320312 271.210938 169.351562 282.96875 173.839844 C 284.972656 174.605469 286.292969 176.527344 286.292969 178.667969 L 286.292969 261 C 286.292969 262.703125 285.457031 264.292969 284.054688 265.257812 C 283.179688 265.859375 282.15625 266.171875 281.125 266.171875 Z M 231.964844 246.054688 C 237.421875 246.054688 242.9375 246.425781 248.476562 247.164062 C 257.386719 248.355469 266.601562 250.535156 275.953125 253.660156 L 275.953125 182.265625 C 256.089844 175.136719 237.601562 172.667969 219.671875 174.757812 L 219.671875 246.691406 C 223.726562 246.269531 227.828125 246.054688 231.964844 246.054688 Z M 231.964844 246.054688 " fill-opacity="1" fill-rule="nonzero"/><path fill="#8cbcdc" d="M 262.679688 203.011719 C 262.078125 203.011719 261.46875 202.90625 260.871094 202.679688 C 254.21875 200.195312 243.984375 197.273438 233.042969 197.480469 C 230.183594 197.535156 227.832031 195.265625 227.777344 192.410156 C 227.722656 189.554688 229.992188 187.199219 232.847656 187.144531 C 245.429688 186.90625 256.996094 190.195312 264.492188 192.996094 C 267.164062 193.996094 268.523438 196.972656 267.523438 199.648438 C 266.746094 201.726562 264.777344 203.011719 262.679688 203.011719 Z M 262.679688 203.011719 " fill-opacity="1" fill-rule="nonzero"/><path fill="#8cbcdc" d="M 262.679688 222.882812 C 262.078125 222.882812 261.46875 222.777344 260.871094 222.554688 C 255.453125 220.527344 244.628906 217.15625 233.03125 217.355469 C 233.003906 217.355469 232.972656 217.355469 232.945312 217.355469 C 230.128906 217.355469 227.824219 215.097656 227.777344 212.273438 C 227.730469 209.417969 230.003906 207.0625 232.859375 207.015625 C 245.488281 206.8125 257.035156 210.082031 264.492188 212.871094 C 267.164062 213.871094 268.523438 216.847656 267.523438 219.523438 C 266.746094 221.601562 264.777344 222.882812 262.679688 222.882812 Z M 262.679688 222.882812 " fill-opacity="1" fill-rule="nonzero"/><path fill="#8cbcdc" d="M 262.679688 242.78125 C 262.078125 242.78125 261.46875 242.675781 260.871094 242.453125 C 254.222656 239.96875 243.992188 237.039062 233.03125 237.226562 C 230.167969 237.265625 227.824219 235 227.777344 232.144531 C 227.730469 229.289062 230.003906 226.9375 232.859375 226.890625 C 245.4375 226.679688 257.003906 229.96875 264.492188 232.769531 C 267.164062 233.769531 268.523438 236.746094 267.523438 239.421875 C 266.746094 241.496094 264.777344 242.78125 262.679688 242.78125 Z M 262.679688 242.78125 " fill-opacity="1" fill-rule="nonzero"/><path fill="#8cbcdc" d="M 125.394531 284.257812 L 116.386719 284.257812 C 110.730469 284.257812 106.160156 280.0625 105.019531 273.8125 L 103.984375 268.113281 C 101.769531 267.378906 99.609375 266.496094 97.523438 265.472656 L 92.648438 268.808594 C 87.402344 272.402344 81.210938 272.167969 77.242188 268.21875 L 70.867188 261.949219 C 70.855469 261.9375 70.847656 261.929688 70.839844 261.921875 C 66.851562 257.941406 66.613281 251.761719 70.25 246.539062 L 73.59375 241.773438 C 72.570312 239.726562 71.691406 237.632812 70.960938 235.503906 L 65.152344 234.457031 C 58.859375 233.34375 54.617188 228.8125 54.617188 223.1875 L 54.617188 214.296875 C 54.617188 208.703125 58.84375 204.164062 65.132812 203.007812 C 65.144531 203.003906 65.15625 203.003906 65.167969 203 L 70.964844 201.96875 C 71.695312 199.847656 72.574219 197.753906 73.59375 195.710938 L 70.257812 190.960938 C 66.613281 185.722656 66.851562 179.542969 70.839844 175.5625 C 70.847656 175.554688 70.855469 175.546875 70.867188 175.539062 L 77.242188 169.265625 C 81.234375 165.296875 87.425781 165.0625 92.660156 168.683594 L 97.523438 172.011719 C 99.601562 170.992188 101.761719 170.105469 103.980469 169.359375 L 105.019531 163.671875 C 106.160156 157.421875 110.730469 153.226562 116.386719 153.226562 L 125.390625 153.226562 C 131.035156 153.226562 135.59375 157.421875 136.734375 163.671875 L 137.789062 169.363281 C 140.003906 170.109375 142.15625 170.992188 144.230469 172.011719 L 149.105469 168.675781 C 154.332031 165.082031 160.539062 165.3125 164.535156 169.265625 L 170.894531 175.542969 C 174.910156 179.511719 175.15625 185.699219 171.507812 190.945312 L 168.171875 195.699219 C 169.179688 197.710938 170.058594 199.808594 170.796875 201.96875 L 176.609375 203 C 176.625 203.003906 176.636719 203.003906 176.652344 203.007812 C 182.921875 204.171875 187.136719 208.707031 187.136719 214.296875 L 187.136719 223.1875 C 187.136719 228.808594 182.910156 233.335938 176.617188 234.457031 L 170.792969 235.507812 C 170.0625 237.632812 169.183594 239.726562 168.160156 241.773438 L 171.496094 246.523438 C 175.15625 251.785156 174.910156 257.972656 170.894531 261.941406 L 164.535156 268.222656 C 160.566406 272.144531 154.371094 272.382812 149.121094 268.820312 L 144.230469 265.472656 C 142.15625 266.492188 140.003906 267.375 137.789062 268.121094 L 136.734375 273.824219 C 135.59375 280.0625 131.035156 284.257812 125.394531 284.257812 Z M 97.183594 254.273438 C 98.066406 254.273438 98.953125 254.5 99.75 254.957031 C 102.890625 256.753906 106.277344 258.136719 109.816406 259.066406 C 111.757812 259.578125 113.230469 261.164062 113.589844 263.140625 L 115.191406 271.960938 C 115.339844 272.769531 115.808594 273.921875 116.386719 273.921875 L 125.394531 273.921875 C 125.894531 273.921875 126.394531 272.902344 126.566406 271.957031 L 128.195312 263.148438 C 128.558594 261.195312 130.007812 259.621094 131.929688 259.101562 C 135.5 258.136719 138.886719 256.742188 142.003906 254.957031 C 143.726562 253.972656 145.855469 254.058594 147.492188 255.175781 L 154.945312 260.277344 C 155.769531 260.835938 156.90625 261.226562 157.273438 260.867188 L 163.632812 254.585938 C 163.941406 254.277344 163.566406 253.230469 163.023438 252.449219 L 157.867188 245.101562 C 156.710938 243.453125 156.617188 241.28125 157.628906 239.539062 C 159.46875 236.363281 160.871094 233.027344 161.792969 229.625 C 162.3125 227.699219 163.898438 226.246094 165.863281 225.890625 L 174.792969 224.28125 C 175.945312 224.078125 176.796875 223.535156 176.796875 223.191406 L 176.796875 214.296875 C 176.796875 213.902344 175.859375 213.378906 174.785156 213.175781 L 165.878906 211.597656 C 163.90625 211.246094 162.316406 209.792969 161.792969 207.859375 C 160.839844 204.34375 159.445312 201.019531 157.652344 197.984375 C 156.617188 196.234375 156.703125 194.046875 157.867188 192.382812 L 163.03125 185.023438 C 163.566406 184.253906 163.941406 183.207031 163.632812 182.902344 L 157.273438 176.621094 C 156.894531 176.246094 155.796875 176.621094 154.957031 177.199219 L 147.492188 182.308594 C 145.855469 183.425781 143.726562 183.511719 142.003906 182.527344 C 138.890625 180.742188 135.5 179.347656 131.929688 178.382812 C 130.011719 177.863281 128.558594 176.289062 128.195312 174.335938 L 126.566406 165.542969 C 126.394531 164.585938 125.894531 163.5625 125.394531 163.5625 L 116.386719 163.5625 C 115.808594 163.5625 115.339844 164.714844 115.191406 165.53125 L 113.589844 174.320312 C 113.230469 176.285156 111.773438 177.867188 109.84375 178.386719 C 106.269531 179.347656 102.871094 180.742188 99.75 182.527344 C 98.03125 183.511719 95.898438 183.425781 94.261719 182.308594 L 86.808594 177.207031 C 86.800781 177.203125 86.792969 177.195312 86.78125 177.1875 C 85.871094 176.558594 84.839844 176.289062 84.527344 176.601562 C 84.519531 176.609375 84.511719 176.617188 84.5 176.625 L 78.136719 182.886719 C 77.816406 183.226562 78.195312 184.261719 78.734375 185.039062 L 83.886719 192.382812 C 85.042969 194.03125 85.136719 196.203125 84.128906 197.945312 C 82.285156 201.121094 80.886719 204.457031 79.964844 207.859375 C 79.441406 209.789062 77.851562 211.246094 75.878906 211.597656 L 66.996094 213.175781 C 65.910156 213.378906 64.957031 213.902344 64.957031 214.296875 L 64.957031 223.1875 C 64.957031 223.535156 65.820312 224.074219 66.972656 224.28125 L 75.894531 225.890625 C 77.859375 226.246094 79.441406 227.699219 79.964844 229.625 C 80.886719 233.027344 82.285156 236.363281 84.128906 239.539062 C 85.136719 241.28125 85.042969 243.453125 83.886719 245.101562 L 78.722656 252.460938 C 78.195312 253.222656 77.816406 254.261719 78.140625 254.597656 L 84.503906 260.859375 C 84.511719 260.867188 84.519531 260.875 84.527344 260.882812 C 84.832031 261.1875 85.894531 260.902344 86.808594 260.277344 L 94.261719 255.175781 C 95.140625 254.578125 96.160156 254.273438 97.183594 254.273438 Z M 97.183594 254.273438 " fill-opacity="1" fill-rule="nonzero"/><path fill="#8cbcdc" d="M 120.890625 247.101562 C 105.09375 247.101562 92.242188 234.378906 92.242188 218.742188 C 92.242188 203.105469 105.09375 190.382812 120.890625 190.382812 C 136.6875 190.382812 149.539062 203.105469 149.539062 218.742188 C 149.539062 234.378906 136.6875 247.101562 120.890625 247.101562 Z M 120.890625 200.722656 C 110.792969 200.722656 102.582031 208.804688 102.582031 218.742188 C 102.582031 228.679688 110.792969 236.761719 120.890625 236.761719 C 130.988281 236.761719 139.199219 228.679688 139.199219 218.742188 C 139.199219 208.804688 130.988281 200.722656 120.890625 200.722656 Z M 120.890625 200.722656 " fill-opacity="1" fill-rule="nonzero"/></svg>