<svg xmlns="http://www.w3.org/2000/svg" xmlns:xlink="http://www.w3.org/1999/xlink" width="500" zoomAndPan="magnify" viewBox="0 0 375 374.999991" height="500" preserveAspectRatio="xMidYMid meet" version="1.0"><defs><clipPath id="6dce4ebb2a"><path d="M 154 238 L 244 238 L 244 346.796875 L 154 346.796875 Z M 154 238 " clip-rule="nonzero"/></clipPath><clipPath id="67713eefd5"><path d="M 28.046875 131 L 137 131 L 137 221 L 28.046875 221 Z M 28.046875 131 " clip-rule="nonzero"/></clipPath></defs><path fill="#8cbcdc" d="M 320.914062 61.097656 C 319.921875 57.714844 317.285156 55.078125 313.902344 54.085938 C 313.902344 54.085938 225.714844 27.839844 153.152344 100.386719 C 117.398438 136.144531 80.191406 194.664062 77.332031 228.210938 C 77.070312 231.25 78.160156 234.257812 80.328125 236.414062 L 138.585938 294.671875 C 140.742188 296.835938 143.75 297.929688 146.789062 297.667969 C 180.335938 294.808594 238.855469 257.601562 274.609375 221.847656 C 347.15625 149.285156 320.914062 61.097656 320.914062 61.097656 Z M 302.359375 72.652344 C 306.046875 91.59375 313.046875 154.117188 259.964844 207.199219 C 229.191406 237.984375 180.445312 271.050781 149.632812 276.433594 C 149.632812 276.433594 98.566406 225.367188 98.566406 225.367188 C 103.964844 194.554688 137.015625 145.808594 167.800781 115.035156 C 220.882812 61.953125 283.417969 68.953125 302.347656 72.640625 Z M 302.359375 72.652344 " fill-opacity="1" fill-rule="evenodd"/><path fill="#8cbcdc" d="M 260.046875 114.953125 C 242.609375 97.515625 214.28125 97.515625 196.847656 114.953125 C 179.410156 132.390625 179.410156 160.71875 196.847656 178.152344 C 214.28125 195.589844 242.609375 195.589844 260.046875 178.152344 C 277.484375 160.71875 277.484375 132.390625 260.046875 114.953125 Z M 245.398438 129.601562 C 254.757812 138.960938 254.757812 154.144531 245.398438 163.507812 C 236.039062 172.867188 220.851562 172.867188 211.492188 163.507812 C 202.132812 154.144531 202.132812 138.960938 211.492188 129.601562 C 220.851562 120.242188 236.039062 120.242188 245.398438 129.601562 Z M 245.398438 129.601562 " fill-opacity="1" fill-rule="evenodd"/><path fill="#8cbcdc" d="M 202.066406 256.800781 L 118.199219 172.933594 C 114.167969 168.902344 107.59375 168.902344 103.5625 172.933594 C 99.519531 176.980469 99.519531 183.539062 103.5625 187.582031 L 187.417969 271.4375 C 191.460938 275.480469 198.019531 275.480469 202.066406 271.4375 C 206.09375 267.40625 206.09375 260.832031 202.066406 256.800781 Z M 202.066406 256.800781 " fill-opacity="1" fill-rule="evenodd"/><g clip-path="url(#6dce4ebb2a)"><path fill="#8cbcdc" d="M 222.992188 247.582031 C 222.992188 247.582031 220.910156 270.402344 219.472656 286.207031 C 218.949219 291.976562 215.566406 297.085938 210.472656 299.832031 L 175.683594 318.566406 C 175.683594 318.566406 175.683594 287.355469 175.683594 287.355469 C 175.683594 281.636719 171.042969 277 165.328125 277 C 159.613281 277 154.976562 281.636719 154.976562 287.355469 L 154.976562 335.90625 C 154.976562 339.550781 156.894531 342.933594 160.011719 344.796875 C 163.148438 346.660156 167.027344 346.757812 170.242188 345.019531 C 170.242188 345.019531 201.800781 328.023438 220.289062 318.070312 C 231.511719 312.039062 238.953125 300.773438 240.097656 288.085938 C 241.535156 272.277344 243.617188 249.445312 243.617188 249.445312 C 244.128906 243.757812 239.933594 238.71875 234.246094 238.207031 C 228.542969 237.683594 223.503906 241.878906 222.992188 247.582031 Z M 222.992188 247.582031 " fill-opacity="1" fill-rule="evenodd"/></g><g clip-path="url(#67713eefd5)"><path fill="#8cbcdc" d="M 125.554688 131.382812 C 125.554688 131.382812 102.722656 133.464844 86.914062 134.902344 C 74.226562 136.046875 62.960938 143.488281 56.929688 154.710938 C 46.976562 173.199219 29.980469 204.757812 29.980469 204.757812 C 28.242188 207.972656 28.339844 211.851562 30.203125 214.984375 C 32.066406 218.105469 35.449219 220.023438 39.09375 220.023438 L 87.644531 220.023438 C 93.363281 220.023438 98 215.386719 98 209.671875 C 98 203.957031 93.363281 199.316406 87.644531 199.316406 L 56.433594 199.316406 L 75.167969 164.527344 C 77.914062 159.433594 83.019531 156.050781 88.792969 155.527344 C 104.597656 154.089844 127.417969 152.007812 127.417969 152.007812 C 133.121094 151.496094 137.316406 146.457031 136.792969 140.753906 C 136.28125 135.066406 131.242188 130.871094 125.554688 131.382812 Z M 125.554688 131.382812 " fill-opacity="1" fill-rule="evenodd"/></g><path fill="#8cbcdc" d="M 58.574219 253.226562 L 36.621094 275.175781 C 32.589844 279.222656 32.589844 285.78125 36.621094 289.824219 C 40.667969 293.855469 47.222656 293.855469 51.269531 289.824219 L 73.21875 267.875 C 77.265625 263.828125 77.265625 257.273438 73.21875 253.226562 C 69.175781 249.183594 62.617188 249.183594 58.574219 253.226562 Z M 58.574219 253.226562 " fill-opacity="1" fill-rule="evenodd"/><path fill="#8cbcdc" d="M 82.855469 277.511719 L 41.480469 318.871094 C 37.4375 322.917969 37.4375 329.472656 41.480469 333.519531 C 45.527344 337.5625 52.082031 337.5625 56.128906 333.519531 L 97.488281 292.144531 C 101.535156 288.113281 101.535156 281.542969 97.488281 277.511719 C 93.457031 273.464844 86.886719 273.464844 82.855469 277.511719 Z M 82.855469 277.511719 " fill-opacity="1" fill-rule="evenodd"/><path fill="#8cbcdc" d="M 107.125 301.78125 L 85.175781 323.730469 C 81.144531 327.777344 81.144531 334.332031 85.175781 338.378906 C 89.21875 342.410156 95.777344 342.410156 99.824219 338.378906 L 121.773438 316.425781 C 125.816406 312.382812 125.816406 305.824219 121.773438 301.78125 C 117.726562 297.734375 111.171875 297.734375 107.125 301.78125 Z M 107.125 301.78125 " fill-opacity="1" fill-rule="evenodd"/></svg>