<svg xmlns="http://www.w3.org/2000/svg" xmlns:xlink="http://www.w3.org/1999/xlink" width="500" zoomAndPan="magnify" viewBox="0 0 375 374.999991" height="500" preserveAspectRatio="xMidYMid meet" version="1.0"><defs><clipPath id="9f458ea9a9"><path d="M 8.585938 172 L 180 172 L 180 240.246094 L 8.585938 240.246094 Z M 8.585938 172 " clip-rule="nonzero"/></clipPath><clipPath id="3e333e47d0"><path d="M 110 134.496094 L 185 134.496094 L 185 214 L 110 214 Z M 110 134.496094 " clip-rule="nonzero"/></clipPath><clipPath id="2b4f97ee7f"><path d="M 195 172 L 366 172 L 366 240.246094 L 195 240.246094 Z M 195 172 " clip-rule="nonzero"/></clipPath><clipPath id="de40d2bb46"><path d="M 190 134.496094 L 265 134.496094 L 265 214 L 190 214 Z M 190 134.496094 " clip-rule="nonzero"/></clipPath></defs><g clip-path="url(#9f458ea9a9)"><path fill="#8cbcdc" d="M 8.996094 172.570312 L 43.636719 240.492188 L 23.742188 186.386719 C 23.742188 186.386719 131.882812 195.472656 179.050781 240.492188 C 179.050781 240.492188 161.730469 187.746094 8.996094 172.570312 Z M 8.996094 172.570312 " fill-opacity="1" fill-rule="nonzero"/></g><path fill="#8cbcdc" d="M 64.609375 147.664062 L 64.609375 172.570312 C 142.191406 182.519531 184.988281 226.894531 184.988281 226.894531 C 153.714844 171.714844 64.609375 147.664062 64.609375 147.664062 Z M 64.609375 147.664062 " fill-opacity="1" fill-rule="nonzero"/><g clip-path="url(#3e333e47d0)"><path fill="#8cbcdc" d="M 110.199219 134.496094 L 110.199219 156.539062 C 159.511719 176.4375 184.917969 213.652344 184.917969 213.652344 C 167.527344 162.195312 110.199219 134.496094 110.199219 134.496094 Z M 110.199219 134.496094 " fill-opacity="1" fill-rule="nonzero"/></g><g clip-path="url(#2b4f97ee7f)"><path fill="#8cbcdc" d="M 365.992188 172.570312 C 213.261719 187.746094 195.941406 240.492188 195.941406 240.492188 C 243.105469 195.472656 351.25 186.386719 351.25 186.386719 L 331.351562 240.492188 Z M 365.992188 172.570312 " fill-opacity="1" fill-rule="nonzero"/></g><path fill="#8cbcdc" d="M 310.453125 147.664062 C 310.453125 147.664062 221.347656 171.640625 190.070312 226.824219 C 190.070312 226.824219 232.871094 182.449219 310.453125 172.5 Z M 310.453125 147.664062 " fill-opacity="1" fill-rule="nonzero"/><g clip-path="url(#de40d2bb46)"><path fill="#8cbcdc" d="M 264.792969 156.539062 L 264.792969 134.496094 C 264.792969 134.496094 207.464844 162.195312 190.070312 213.652344 C 190.070312 213.652344 215.480469 176.4375 264.792969 156.539062 Z M 264.792969 156.539062 " fill-opacity="1" fill-rule="nonzero"/></g></svg>