<svg xmlns="http://www.w3.org/2000/svg" xmlns:xlink="http://www.w3.org/1999/xlink" width="500" zoomAndPan="magnify" viewBox="0 0 375 374.999991" height="500" preserveAspectRatio="xMidYMid meet" version="1.0"><defs><clipPath id="868466497f"><path d="M 58.015625 25.648438 L 316.765625 25.648438 L 316.765625 349.648438 L 58.015625 349.648438 Z M 58.015625 25.648438 " clip-rule="nonzero"/></clipPath></defs><g clip-path="url(#868466497f)"><path fill="#8cbcdc" d="M 300.792969 68.804688 C 303.761719 68.804688 306.1875 71.230469 306.1875 74.203125 L 306.1875 333.15625 C 306.1875 336.128906 303.761719 338.550781 300.792969 338.550781 L 106.574219 338.550781 C 103.601562 338.550781 101.179688 336.128906 101.179688 333.15625 L 101.179688 316.972656 L 268.421875 316.972656 C 277.355469 316.972656 284.605469 309.722656 284.605469 300.789062 L 284.605469 68.804688 Z M 68.808594 300.789062 L 68.808594 90.386719 L 106.574219 90.386719 C 115.507812 90.386719 122.757812 83.136719 122.757812 74.203125 L 122.757812 36.4375 L 268.421875 36.4375 C 271.394531 36.4375 273.816406 38.859375 273.816406 41.832031 L 273.816406 300.789062 C 273.816406 303.757812 271.394531 306.183594 268.421875 306.183594 L 74.203125 306.183594 C 71.234375 306.183594 68.808594 303.757812 68.808594 300.789062 Z M 111.96875 44.066406 L 111.96875 74.203125 C 111.96875 77.171875 109.546875 79.597656 106.574219 79.597656 L 76.4375 79.597656 Z M 268.421875 25.648438 L 117.363281 25.648438 C 115.929688 25.648438 114.5625 26.214844 113.550781 27.226562 L 59.601562 81.175781 C 58.589844 82.1875 58.019531 83.558594 58.019531 84.992188 L 58.019531 300.789062 C 58.019531 309.722656 65.269531 316.972656 74.203125 316.972656 L 90.390625 316.972656 L 90.390625 333.15625 C 90.390625 342.09375 97.640625 349.34375 106.574219 349.34375 L 300.792969 349.34375 C 309.726562 349.34375 316.976562 342.09375 316.976562 333.15625 L 316.976562 74.203125 C 316.976562 65.265625 309.726562 58.015625 300.792969 58.015625 L 284.605469 58.015625 L 284.605469 41.832031 C 284.605469 32.894531 277.355469 25.648438 268.421875 25.648438 " fill-opacity="1" fill-rule="nonzero"/></g><path fill="#8cbcdc" d="M 95.785156 236.050781 L 246.84375 236.050781 C 249.8125 236.050781 252.238281 233.625 252.238281 230.652344 C 252.238281 227.683594 249.8125 225.257812 246.84375 225.257812 L 95.785156 225.257812 C 92.8125 225.257812 90.390625 227.683594 90.390625 230.652344 C 90.390625 233.625 92.8125 236.050781 95.785156 236.050781 " fill-opacity="1" fill-rule="nonzero"/><path fill="#8cbcdc" d="M 160.523438 252.234375 L 155.128906 252.234375 C 152.15625 252.234375 149.734375 254.65625 149.734375 257.628906 C 149.734375 260.601562 152.15625 263.023438 155.128906 263.023438 L 160.523438 263.023438 C 163.496094 263.023438 165.917969 260.601562 165.917969 257.628906 C 165.917969 254.65625 163.496094 252.234375 160.523438 252.234375 " fill-opacity="1" fill-rule="nonzero"/><path fill="#8cbcdc" d="M 128.152344 263.023438 C 131.125 263.023438 133.546875 260.601562 133.546875 257.628906 C 133.546875 254.65625 131.125 252.234375 128.152344 252.234375 L 95.785156 252.234375 C 92.8125 252.234375 90.390625 254.65625 90.390625 257.628906 C 90.390625 260.601562 92.8125 263.023438 95.785156 263.023438 L 128.152344 263.023438 " fill-opacity="1" fill-rule="nonzero"/><path fill="#8cbcdc" d="M 95.785156 209.074219 L 111.96875 209.074219 C 114.941406 209.074219 117.363281 206.652344 117.363281 203.679688 C 117.363281 200.707031 114.941406 198.285156 111.96875 198.285156 L 95.785156 198.285156 C 92.8125 198.285156 90.390625 200.707031 90.390625 203.679688 C 90.390625 206.652344 92.8125 209.074219 95.785156 209.074219 " fill-opacity="1" fill-rule="nonzero"/><path fill="#8cbcdc" d="M 133.546875 203.679688 C 133.546875 206.652344 135.972656 209.074219 138.945312 209.074219 L 203.683594 209.074219 C 206.652344 209.074219 209.078125 206.652344 209.078125 203.679688 C 209.078125 200.707031 206.652344 198.285156 203.683594 198.285156 L 138.945312 198.285156 C 135.972656 198.285156 133.546875 200.707031 133.546875 203.679688 " fill-opacity="1" fill-rule="nonzero"/><path fill="#8cbcdc" d="M 230.65625 198.285156 C 227.6875 198.285156 225.261719 200.707031 225.261719 203.679688 C 225.261719 206.652344 227.6875 209.074219 230.65625 209.074219 L 246.84375 209.074219 C 249.8125 209.074219 252.238281 206.652344 252.238281 203.679688 C 252.238281 200.707031 249.8125 198.285156 246.84375 198.285156 L 230.65625 198.285156 " fill-opacity="1" fill-rule="nonzero"/><path fill="#8cbcdc" d="M 129.734375 180.519531 C 130.789062 181.574219 132.15625 182.101562 133.546875 182.101562 C 134.941406 182.101562 136.308594 181.574219 137.363281 180.519531 C 139.46875 178.410156 139.46875 174.996094 137.363281 172.890625 L 108.808594 144.335938 L 137.363281 115.78125 C 139.46875 113.671875 139.46875 110.257812 137.363281 108.152344 C 135.253906 106.042969 131.84375 106.042969 129.734375 108.152344 L 97.363281 140.519531 C 95.257812 142.628906 95.257812 146.042969 97.363281 148.148438 L 129.734375 180.519531 " fill-opacity="1" fill-rule="nonzero"/><path fill="#8cbcdc" d="M 205.261719 180.519531 C 206.316406 181.574219 207.6875 182.101562 209.078125 182.101562 C 210.46875 182.101562 211.839844 181.574219 212.890625 180.519531 L 245.261719 148.148438 C 247.367188 146.042969 247.367188 142.628906 245.261719 140.519531 L 212.890625 108.152344 C 210.785156 106.042969 207.371094 106.042969 205.261719 108.152344 C 203.15625 110.257812 203.15625 113.671875 205.261719 115.78125 L 233.820312 144.335938 L 205.261719 172.890625 C 203.15625 174.996094 203.15625 178.410156 205.261719 180.519531 " fill-opacity="1" fill-rule="nonzero"/><path fill="#8cbcdc" d="M 152.703125 181.53125 C 153.484375 181.910156 154.304688 182.101562 155.128906 182.101562 C 157.109375 182.101562 159.007812 181.003906 159.953125 179.128906 L 192.324219 114.390625 C 193.652344 111.710938 192.578125 108.46875 189.921875 107.140625 C 187.246094 105.8125 184 106.886719 182.671875 109.542969 L 150.300781 174.28125 C 148.976562 176.957031 150.050781 180.203125 152.703125 181.53125 " fill-opacity="1" fill-rule="nonzero"/></svg>