<svg xmlns="http://www.w3.org/2000/svg" xmlns:xlink="http://www.w3.org/1999/xlink" width="200" zoomAndPan="magnify" viewBox="0 0 150 112.499997" height="150" preserveAspectRatio="xMidYMid meet" version="1.0"><defs><clipPath id="0bf4716167"><path d="M 33.636719 4.296875 L 116.515625 4.296875 L 116.515625 107.335938 L 33.636719 107.335938 Z M 33.636719 4.296875 " clip-rule="nonzero"/></clipPath></defs><g clip-path="url(#0bf4716167)"><path fill="#8cbcdc" d="M 111.183594 18.085938 C 112.132812 18.085938 112.90625 18.859375 112.90625 19.808594 L 112.90625 102.527344 C 112.90625 103.476562 112.132812 104.25 111.183594 104.25 L 49.144531 104.25 C 48.195312 104.25 47.421875 103.476562 47.421875 102.527344 L 47.421875 97.355469 L 100.84375 97.355469 C 103.699219 97.355469 106.015625 95.039062 106.015625 92.1875 L 106.015625 18.085938 Z M 37.082031 92.1875 L 37.082031 24.976562 L 49.144531 24.976562 C 52 24.976562 54.316406 22.664062 54.316406 19.808594 L 54.316406 7.746094 L 100.84375 7.746094 C 101.792969 7.746094 102.566406 8.519531 102.566406 9.46875 L 102.566406 92.1875 C 102.566406 93.136719 101.792969 93.910156 100.84375 93.910156 L 38.804688 93.910156 C 37.855469 93.910156 37.082031 93.136719 37.082031 92.1875 Z M 50.867188 10.183594 L 50.867188 19.808594 C 50.867188 20.757812 50.09375 21.53125 49.144531 21.53125 L 39.519531 21.53125 Z M 100.84375 4.296875 L 52.589844 4.296875 C 52.132812 4.296875 51.695312 4.480469 51.375 4.804688 L 34.140625 22.035156 C 33.816406 22.359375 33.636719 22.796875 33.636719 23.253906 L 33.636719 92.1875 C 33.636719 95.039062 35.949219 97.355469 38.804688 97.355469 L 43.976562 97.355469 L 43.976562 102.527344 C 43.976562 105.378906 46.289062 107.695312 49.144531 107.695312 L 111.183594 107.695312 C 114.039062 107.695312 116.355469 105.378906 116.355469 102.527344 L 116.355469 19.808594 C 116.355469 16.953125 114.039062 14.636719 111.183594 14.636719 L 106.015625 14.636719 L 106.015625 9.46875 C 106.015625 6.613281 103.699219 4.296875 100.84375 4.296875 " fill-opacity="1" fill-rule="nonzero"/></g><path fill="#8cbcdc" d="M 45.699219 71.507812 L 93.949219 71.507812 C 94.898438 71.507812 95.675781 70.734375 95.675781 69.785156 C 95.675781 68.835938 94.898438 68.058594 93.949219 68.058594 L 45.699219 68.058594 C 44.75 68.058594 43.976562 68.835938 43.976562 69.785156 C 43.976562 70.734375 44.75 71.507812 45.699219 71.507812 " fill-opacity="1" fill-rule="nonzero"/><path fill="#8cbcdc" d="M 66.378906 76.675781 L 64.65625 76.675781 C 63.707031 76.675781 62.929688 77.449219 62.929688 78.398438 C 62.929688 79.347656 63.707031 80.125 64.65625 80.125 L 66.378906 80.125 C 67.328125 80.125 68.101562 79.347656 68.101562 78.398438 C 68.101562 77.449219 67.328125 76.675781 66.378906 76.675781 " fill-opacity="1" fill-rule="nonzero"/><path fill="#8cbcdc" d="M 56.039062 80.125 C 56.988281 80.125 57.761719 79.347656 57.761719 78.398438 C 57.761719 77.449219 56.988281 76.675781 56.039062 76.675781 L 45.699219 76.675781 C 44.75 76.675781 43.976562 77.449219 43.976562 78.398438 C 43.976562 79.347656 44.75 80.125 45.699219 80.125 L 56.039062 80.125 " fill-opacity="1" fill-rule="nonzero"/><path fill="#8cbcdc" d="M 45.699219 62.890625 L 50.867188 62.890625 C 51.816406 62.890625 52.589844 62.117188 52.589844 61.167969 C 52.589844 60.21875 51.816406 59.445312 50.867188 59.445312 L 45.699219 59.445312 C 44.75 59.445312 43.976562 60.21875 43.976562 61.167969 C 43.976562 62.117188 44.75 62.890625 45.699219 62.890625 " fill-opacity="1" fill-rule="nonzero"/><path fill="#8cbcdc" d="M 57.761719 61.167969 C 57.761719 62.117188 58.535156 62.890625 59.484375 62.890625 L 80.164062 62.890625 C 81.113281 62.890625 81.886719 62.117188 81.886719 61.167969 C 81.886719 60.21875 81.113281 59.445312 80.164062 59.445312 L 59.484375 59.445312 C 58.535156 59.445312 57.761719 60.21875 57.761719 61.167969 " fill-opacity="1" fill-rule="nonzero"/><path fill="#8cbcdc" d="M 88.78125 59.445312 C 87.832031 59.445312 87.058594 60.21875 87.058594 61.167969 C 87.058594 62.117188 87.832031 62.890625 88.78125 62.890625 L 93.949219 62.890625 C 94.898438 62.890625 95.675781 62.117188 95.675781 61.167969 C 95.675781 60.21875 94.898438 59.445312 93.949219 59.445312 L 88.78125 59.445312 " fill-opacity="1" fill-rule="nonzero"/><path fill="#8cbcdc" d="M 56.542969 53.769531 C 56.878906 54.105469 57.316406 54.273438 57.761719 54.273438 C 58.207031 54.273438 58.644531 54.105469 58.980469 53.769531 C 59.652344 53.097656 59.652344 52.003906 58.980469 51.332031 L 49.859375 42.210938 L 58.980469 33.089844 C 59.652344 32.417969 59.652344 31.324219 58.980469 30.652344 C 58.308594 29.980469 57.214844 29.980469 56.542969 30.652344 L 46.203125 40.992188 C 45.53125 41.664062 45.53125 42.757812 46.203125 43.429688 L 56.542969 53.769531 " fill-opacity="1" fill-rule="nonzero"/><path fill="#8cbcdc" d="M 80.667969 53.769531 C 81.003906 54.105469 81.445312 54.273438 81.886719 54.273438 C 82.332031 54.273438 82.769531 54.105469 83.105469 53.769531 L 93.445312 43.429688 C 94.117188 42.757812 94.117188 41.664062 93.445312 40.992188 L 83.105469 30.652344 C 82.433594 29.980469 81.34375 29.980469 80.667969 30.652344 C 79.996094 31.324219 79.996094 32.417969 80.667969 33.089844 L 89.789062 42.210938 L 80.667969 51.332031 C 79.996094 52.003906 79.996094 53.097656 80.667969 53.769531 " fill-opacity="1" fill-rule="nonzero"/><path fill="#8cbcdc" d="M 63.878906 54.09375 C 64.128906 54.214844 64.390625 54.273438 64.65625 54.273438 C 65.289062 54.273438 65.894531 53.921875 66.195312 53.324219 L 76.535156 32.644531 C 76.960938 31.789062 76.617188 30.753906 75.769531 30.328125 C 74.914062 29.90625 73.878906 30.25 73.453125 31.097656 L 63.113281 51.777344 C 62.6875 52.632812 63.03125 53.667969 63.878906 54.09375 " fill-opacity="1" fill-rule="nonzero"/></svg>