<svg xmlns="http://www.w3.org/2000/svg" xmlns:xlink="http://www.w3.org/1999/xlink" width="200" zoomAndPan="magnify" viewBox="0 0 150 112.499997" height="150" preserveAspectRatio="xMidYMid meet" version="1.0"><defs><clipPath id="12b4e2071d"><path d="M 0.332031 0 L 149.667969 0 L 149.667969 112.003906 L 0.332031 112.003906 Z M 0.332031 0 " clip-rule="nonzero"/></clipPath><clipPath id="4025a61add"><path d="M 28.652344 9.652344 L 121.242188 9.652344 L 121.242188 102.242188 L 28.652344 102.242188 Z M 28.652344 9.652344 " clip-rule="nonzero"/></clipPath></defs><g clip-path="url(#12b4e2071d)"><path fill="#ffffff" d="M 0.332031 0 L 149.667969 0 L 149.667969 112.003906 L 0.332031 112.003906 Z M 0.332031 0 " fill-opacity="1" fill-rule="nonzero"/><path fill="#ffffff" d="M 0.332031 0 L 149.667969 0 L 149.667969 112.003906 L 0.332031 112.003906 Z M 0.332031 0 " fill-opacity="1" fill-rule="nonzero"/></g><g clip-path="url(#4025a61add)"><path fill="#8cbcdc" d="M 28.652344 86.898438 L 28.652344 76.597656 C 28.652344 73.753906 30.957031 71.449219 33.800781 71.449219 C 36.648438 71.449219 38.953125 73.753906 38.953125 76.597656 L 38.953125 86.898438 C 38.953125 89.738281 41.261719 92.046875 44.101562 92.046875 L 105.898438 92.046875 C 108.738281 92.046875 111.046875 89.738281 111.046875 86.898438 L 111.046875 76.597656 C 111.046875 73.753906 113.351562 71.449219 116.195312 71.449219 C 119.042969 71.449219 121.347656 73.753906 121.347656 76.597656 L 121.347656 86.898438 C 121.347656 95.417969 114.417969 102.347656 105.898438 102.347656 L 44.101562 102.347656 C 35.582031 102.347656 28.652344 95.417969 28.652344 86.898438 Z M 45.609375 36.910156 C 43.597656 38.921875 43.597656 42.179688 45.609375 44.191406 L 71.359375 69.941406 C 72.363281 70.945312 73.683594 71.449219 75 71.449219 C 76.316406 71.449219 77.636719 70.945312 78.640625 69.941406 L 104.390625 44.191406 C 106.402344 42.179688 106.402344 38.921875 104.390625 36.910156 C 102.378906 34.898438 99.117188 34.898438 97.105469 36.910156 L 80.148438 53.867188 L 80.148438 14.804688 C 80.148438 11.957031 77.847656 9.652344 75 9.652344 C 72.152344 9.652344 69.851562 11.957031 69.851562 14.804688 L 69.851562 53.867188 L 52.890625 36.910156 C 50.882812 34.898438 47.621094 34.898438 45.609375 36.910156 Z M 45.609375 36.910156 " fill-opacity="1" fill-rule="nonzero"/></g></svg>