<svg xmlns="http://www.w3.org/2000/svg" xmlns:xlink="http://www.w3.org/1999/xlink" width="200" zoomAndPan="magnify" viewBox="0 0 150 112.499997" height="150" preserveAspectRatio="xMidYMid meet" version="1.0"><defs><clipPath id="ae0c97b766"><path d="M 8.851562 4.226562 L 141.179688 4.226562 L 141.179688 107.945312 L 8.851562 107.945312 Z M 8.851562 4.226562 " clip-rule="nonzero"/></clipPath><clipPath id="09fa9f3f82"><path d="M 23.039062 4.226562 L 126.960938 4.226562 C 130.722656 4.226562 134.332031 5.722656 136.992188 8.382812 C 139.652344 11.042969 141.148438 14.652344 141.148438 18.414062 L 141.148438 93.585938 C 141.148438 97.347656 139.652344 100.957031 136.992188 103.617188 C 134.332031 106.277344 130.722656 107.769531 126.960938 107.769531 L 23.039062 107.769531 C 19.273438 107.769531 15.667969 106.277344 13.007812 103.617188 C 10.347656 100.957031 8.851562 97.347656 8.851562 93.585938 L 8.851562 18.414062 C 8.851562 14.652344 10.347656 11.042969 13.007812 8.382812 C 15.667969 5.722656 19.273438 4.226562 23.039062 4.226562 Z M 23.039062 4.226562 " clip-rule="nonzero"/></clipPath><clipPath id="4c49ad3d2a"><path d="M 21 11 L 32 11 L 32 22 L 21 22 Z M 21 11 " clip-rule="nonzero"/></clipPath><clipPath id="9a1c60fc5f"><path d="M 18.796875 18.328125 L 18.796875 93.671875 C 18.796875 99.445312 23.476562 104.125 29.25 104.125 L 120.75 104.125 C 126.523438 104.125 131.203125 99.445312 131.203125 93.671875 L 131.203125 18.328125 C 131.203125 12.554688 126.523438 7.875 120.75 7.875 L 29.25 7.875 C 23.476562 7.875 18.796875 12.554688 18.796875 18.328125 Z M 18.796875 18.328125 " clip-rule="nonzero"/></clipPath><clipPath id="8f2bcc319a"><path d="M 41 11 L 52 11 L 52 22 L 41 22 Z M 41 11 " clip-rule="nonzero"/></clipPath><clipPath id="9ad99505e9"><path d="M 18.796875 18.328125 L 18.796875 93.671875 C 18.796875 99.445312 23.476562 104.125 29.25 104.125 L 120.75 104.125 C 126.523438 104.125 131.203125 99.445312 131.203125 93.671875 L 131.203125 18.328125 C 131.203125 12.554688 126.523438 7.875 120.75 7.875 L 29.25 7.875 C 23.476562 7.875 18.796875 12.554688 18.796875 18.328125 Z M 18.796875 18.328125 " clip-rule="nonzero"/></clipPath><clipPath id="200d23b904"><path d="M 61 11 L 72 11 L 72 22 L 61 22 Z M 61 11 " clip-rule="nonzero"/></clipPath><clipPath id="8667c33998"><path d="M 18.796875 18.328125 L 18.796875 93.671875 C 18.796875 99.445312 23.476562 104.125 29.25 104.125 L 120.75 104.125 C 126.523438 104.125 131.203125 99.445312 131.203125 93.671875 L 131.203125 18.328125 C 131.203125 12.554688 126.523438 7.875 120.75 7.875 L 29.25 7.875 C 23.476562 7.875 18.796875 12.554688 18.796875 18.328125 Z M 18.796875 18.328125 " clip-rule="nonzero"/></clipPath><clipPath id="5efda6cb51"><path d="M 81 11 L 92 11 L 92 22 L 81 22 Z M 81 11 " clip-rule="nonzero"/></clipPath><clipPath id="cd349134ca"><path d="M 18.796875 18.328125 L 18.796875 93.671875 C 18.796875 99.445312 23.476562 104.125 29.25 104.125 L 120.75 104.125 C 126.523438 104.125 131.203125 99.445312 131.203125 93.671875 L 131.203125 18.328125 C 131.203125 12.554688 126.523438 7.875 120.75 7.875 L 29.25 7.875 C 23.476562 7.875 18.796875 12.554688 18.796875 18.328125 Z M 18.796875 18.328125 " clip-rule="nonzero"/></clipPath><clipPath id="3781e93590"><path d="M 101 11 L 112 11 L 112 22 L 101 22 Z M 101 11 " clip-rule="nonzero"/></clipPath><clipPath id="fa10316f98"><path d="M 18.796875 18.328125 L 18.796875 93.671875 C 18.796875 99.445312 23.476562 104.125 29.25 104.125 L 120.75 104.125 C 126.523438 104.125 131.203125 99.445312 131.203125 93.671875 L 131.203125 18.328125 C 131.203125 12.554688 126.523438 7.875 120.75 7.875 L 29.25 7.875 C 23.476562 7.875 18.796875 12.554688 18.796875 18.328125 Z M 18.796875 18.328125 " clip-rule="nonzero"/></clipPath><clipPath id="a12efc3d21"><path d="M 121 11 L 131 11 L 131 22 L 121 22 Z M 121 11 " clip-rule="nonzero"/></clipPath><clipPath id="96223ee9cf"><path d="M 18.796875 18.328125 L 18.796875 93.671875 C 18.796875 99.445312 23.476562 104.125 29.25 104.125 L 120.75 104.125 C 126.523438 104.125 131.203125 99.445312 131.203125 93.671875 L 131.203125 18.328125 C 131.203125 12.554688 126.523438 7.875 120.75 7.875 L 29.25 7.875 C 23.476562 7.875 18.796875 12.554688 18.796875 18.328125 Z M 18.796875 18.328125 " clip-rule="nonzero"/></clipPath><clipPath id="d0daeb2712"><path d="M 21 28 L 32 28 L 32 39 L 21 39 Z M 21 28 " clip-rule="nonzero"/></clipPath><clipPath id="8eff85a88c"><path d="M 18.796875 18.328125 L 18.796875 93.671875 C 18.796875 99.445312 23.476562 104.125 29.25 104.125 L 120.75 104.125 C 126.523438 104.125 131.203125 99.445312 131.203125 93.671875 L 131.203125 18.328125 C 131.203125 12.554688 126.523438 7.875 120.75 7.875 L 29.25 7.875 C 23.476562 7.875 18.796875 12.554688 18.796875 18.328125 Z M 18.796875 18.328125 " clip-rule="nonzero"/></clipPath><clipPath id="33993f3449"><path d="M 41 28 L 52 28 L 52 39 L 41 39 Z M 41 28 " clip-rule="nonzero"/></clipPath><clipPath id="d14b50808d"><path d="M 18.796875 18.328125 L 18.796875 93.671875 C 18.796875 99.445312 23.476562 104.125 29.25 104.125 L 120.75 104.125 C 126.523438 104.125 131.203125 99.445312 131.203125 93.671875 L 131.203125 18.328125 C 131.203125 12.554688 126.523438 7.875 120.75 7.875 L 29.25 7.875 C 23.476562 7.875 18.796875 12.554688 18.796875 18.328125 Z M 18.796875 18.328125 " clip-rule="nonzero"/></clipPath><clipPath id="77da60dcb8"><path d="M 61 28 L 72 28 L 72 39 L 61 39 Z M 61 28 " clip-rule="nonzero"/></clipPath><clipPath id="d67f45308e"><path d="M 18.796875 18.328125 L 18.796875 93.671875 C 18.796875 99.445312 23.476562 104.125 29.25 104.125 L 120.75 104.125 C 126.523438 104.125 131.203125 99.445312 131.203125 93.671875 L 131.203125 18.328125 C 131.203125 12.554688 126.523438 7.875 120.75 7.875 L 29.25 7.875 C 23.476562 7.875 18.796875 12.554688 18.796875 18.328125 Z M 18.796875 18.328125 " clip-rule="nonzero"/></clipPath><clipPath id="f57281f384"><path d="M 81 28 L 92 28 L 92 39 L 81 39 Z M 81 28 " clip-rule="nonzero"/></clipPath><clipPath id="a561a26546"><path d="M 18.796875 18.328125 L 18.796875 93.671875 C 18.796875 99.445312 23.476562 104.125 29.25 104.125 L 120.75 104.125 C 126.523438 104.125 131.203125 99.445312 131.203125 93.671875 L 131.203125 18.328125 C 131.203125 12.554688 126.523438 7.875 120.75 7.875 L 29.25 7.875 C 23.476562 7.875 18.796875 12.554688 18.796875 18.328125 Z M 18.796875 18.328125 " clip-rule="nonzero"/></clipPath><clipPath id="bbeb8c10ab"><path d="M 101 28 L 112 28 L 112 39 L 101 39 Z M 101 28 " clip-rule="nonzero"/></clipPath><clipPath id="f25ee76b05"><path d="M 18.796875 18.328125 L 18.796875 93.671875 C 18.796875 99.445312 23.476562 104.125 29.25 104.125 L 120.75 104.125 C 126.523438 104.125 131.203125 99.445312 131.203125 93.671875 L 131.203125 18.328125 C 131.203125 12.554688 126.523438 7.875 120.75 7.875 L 29.25 7.875 C 23.476562 7.875 18.796875 12.554688 18.796875 18.328125 Z M 18.796875 18.328125 " clip-rule="nonzero"/></clipPath><clipPath id="d86f966c1a"><path d="M 121 28 L 131 28 L 131 39 L 121 39 Z M 121 28 " clip-rule="nonzero"/></clipPath><clipPath id="5ca31e61ee"><path d="M 18.796875 18.328125 L 18.796875 93.671875 C 18.796875 99.445312 23.476562 104.125 29.25 104.125 L 120.75 104.125 C 126.523438 104.125 131.203125 99.445312 131.203125 93.671875 L 131.203125 18.328125 C 131.203125 12.554688 126.523438 7.875 120.75 7.875 L 29.25 7.875 C 23.476562 7.875 18.796875 12.554688 18.796875 18.328125 Z M 18.796875 18.328125 " clip-rule="nonzero"/></clipPath><clipPath id="32d9d8be48"><path d="M 21 44 L 32 44 L 32 55 L 21 55 Z M 21 44 " clip-rule="nonzero"/></clipPath><clipPath id="929eacd89f"><path d="M 18.796875 18.328125 L 18.796875 93.671875 C 18.796875 99.445312 23.476562 104.125 29.25 104.125 L 120.75 104.125 C 126.523438 104.125 131.203125 99.445312 131.203125 93.671875 L 131.203125 18.328125 C 131.203125 12.554688 126.523438 7.875 120.75 7.875 L 29.25 7.875 C 23.476562 7.875 18.796875 12.554688 18.796875 18.328125 Z M 18.796875 18.328125 " clip-rule="nonzero"/></clipPath><clipPath id="448eb0f8ab"><path d="M 41 44 L 52 44 L 52 55 L 41 55 Z M 41 44 " clip-rule="nonzero"/></clipPath><clipPath id="d611f8b521"><path d="M 18.796875 18.328125 L 18.796875 93.671875 C 18.796875 99.445312 23.476562 104.125 29.25 104.125 L 120.75 104.125 C 126.523438 104.125 131.203125 99.445312 131.203125 93.671875 L 131.203125 18.328125 C 131.203125 12.554688 126.523438 7.875 120.75 7.875 L 29.25 7.875 C 23.476562 7.875 18.796875 12.554688 18.796875 18.328125 Z M 18.796875 18.328125 " clip-rule="nonzero"/></clipPath><clipPath id="21c1777f73"><path d="M 61 44 L 72 44 L 72 55 L 61 55 Z M 61 44 " clip-rule="nonzero"/></clipPath><clipPath id="37d767146d"><path d="M 18.796875 18.328125 L 18.796875 93.671875 C 18.796875 99.445312 23.476562 104.125 29.25 104.125 L 120.75 104.125 C 126.523438 104.125 131.203125 99.445312 131.203125 93.671875 L 131.203125 18.328125 C 131.203125 12.554688 126.523438 7.875 120.75 7.875 L 29.25 7.875 C 23.476562 7.875 18.796875 12.554688 18.796875 18.328125 Z M 18.796875 18.328125 " clip-rule="nonzero"/></clipPath><clipPath id="6d86d3771f"><path d="M 81 44 L 92 44 L 92 55 L 81 55 Z M 81 44 " clip-rule="nonzero"/></clipPath><clipPath id="b603375dd9"><path d="M 18.796875 18.328125 L 18.796875 93.671875 C 18.796875 99.445312 23.476562 104.125 29.25 104.125 L 120.75 104.125 C 126.523438 104.125 131.203125 99.445312 131.203125 93.671875 L 131.203125 18.328125 C 131.203125 12.554688 126.523438 7.875 120.75 7.875 L 29.25 7.875 C 23.476562 7.875 18.796875 12.554688 18.796875 18.328125 Z M 18.796875 18.328125 " clip-rule="nonzero"/></clipPath><clipPath id="d8b8c3a9b4"><path d="M 101 44 L 112 44 L 112 55 L 101 55 Z M 101 44 " clip-rule="nonzero"/></clipPath><clipPath id="c045442a0f"><path d="M 18.796875 18.328125 L 18.796875 93.671875 C 18.796875 99.445312 23.476562 104.125 29.25 104.125 L 120.75 104.125 C 126.523438 104.125 131.203125 99.445312 131.203125 93.671875 L 131.203125 18.328125 C 131.203125 12.554688 126.523438 7.875 120.75 7.875 L 29.25 7.875 C 23.476562 7.875 18.796875 12.554688 18.796875 18.328125 Z M 18.796875 18.328125 " clip-rule="nonzero"/></clipPath><clipPath id="e5cdb0b199"><path d="M 121 44 L 131 44 L 131 55 L 121 55 Z M 121 44 " clip-rule="nonzero"/></clipPath><clipPath id="b54ccd32d4"><path d="M 18.796875 18.328125 L 18.796875 93.671875 C 18.796875 99.445312 23.476562 104.125 29.25 104.125 L 120.75 104.125 C 126.523438 104.125 131.203125 99.445312 131.203125 93.671875 L 131.203125 18.328125 C 131.203125 12.554688 126.523438 7.875 120.75 7.875 L 29.25 7.875 C 23.476562 7.875 18.796875 12.554688 18.796875 18.328125 Z M 18.796875 18.328125 " clip-rule="nonzero"/></clipPath><clipPath id="efcd7d5acb"><path d="M 21 61 L 32 61 L 32 72 L 21 72 Z M 21 61 " clip-rule="nonzero"/></clipPath><clipPath id="86f9227125"><path d="M 18.796875 18.328125 L 18.796875 93.671875 C 18.796875 99.445312 23.476562 104.125 29.25 104.125 L 120.75 104.125 C 126.523438 104.125 131.203125 99.445312 131.203125 93.671875 L 131.203125 18.328125 C 131.203125 12.554688 126.523438 7.875 120.75 7.875 L 29.25 7.875 C 23.476562 7.875 18.796875 12.554688 18.796875 18.328125 Z M 18.796875 18.328125 " clip-rule="nonzero"/></clipPath><clipPath id="d88df3700f"><path d="M 41 61 L 52 61 L 52 72 L 41 72 Z M 41 61 " clip-rule="nonzero"/></clipPath><clipPath id="248df7277d"><path d="M 18.796875 18.328125 L 18.796875 93.671875 C 18.796875 99.445312 23.476562 104.125 29.25 104.125 L 120.75 104.125 C 126.523438 104.125 131.203125 99.445312 131.203125 93.671875 L 131.203125 18.328125 C 131.203125 12.554688 126.523438 7.875 120.75 7.875 L 29.25 7.875 C 23.476562 7.875 18.796875 12.554688 18.796875 18.328125 Z M 18.796875 18.328125 " clip-rule="nonzero"/></clipPath><clipPath id="b28b2daf69"><path d="M 61 61 L 72 61 L 72 72 L 61 72 Z M 61 61 " clip-rule="nonzero"/></clipPath><clipPath id="c5169d1f1a"><path d="M 18.796875 18.328125 L 18.796875 93.671875 C 18.796875 99.445312 23.476562 104.125 29.25 104.125 L 120.75 104.125 C 126.523438 104.125 131.203125 99.445312 131.203125 93.671875 L 131.203125 18.328125 C 131.203125 12.554688 126.523438 7.875 120.75 7.875 L 29.25 7.875 C 23.476562 7.875 18.796875 12.554688 18.796875 18.328125 Z M 18.796875 18.328125 " clip-rule="nonzero"/></clipPath><clipPath id="d5dac3aa79"><path d="M 81 61 L 92 61 L 92 72 L 81 72 Z M 81 61 " clip-rule="nonzero"/></clipPath><clipPath id="04552aef3e"><path d="M 18.796875 18.328125 L 18.796875 93.671875 C 18.796875 99.445312 23.476562 104.125 29.25 104.125 L 120.75 104.125 C 126.523438 104.125 131.203125 99.445312 131.203125 93.671875 L 131.203125 18.328125 C 131.203125 12.554688 126.523438 7.875 120.75 7.875 L 29.25 7.875 C 23.476562 7.875 18.796875 12.554688 18.796875 18.328125 Z M 18.796875 18.328125 " clip-rule="nonzero"/></clipPath><clipPath id="60ecc5fa14"><path d="M 101 61 L 112 61 L 112 72 L 101 72 Z M 101 61 " clip-rule="nonzero"/></clipPath><clipPath id="8078a33435"><path d="M 18.796875 18.328125 L 18.796875 93.671875 C 18.796875 99.445312 23.476562 104.125 29.25 104.125 L 120.75 104.125 C 126.523438 104.125 131.203125 99.445312 131.203125 93.671875 L 131.203125 18.328125 C 131.203125 12.554688 126.523438 7.875 120.75 7.875 L 29.25 7.875 C 23.476562 7.875 18.796875 12.554688 18.796875 18.328125 Z M 18.796875 18.328125 " clip-rule="nonzero"/></clipPath><clipPath id="5bb1007bf3"><path d="M 121 61 L 131 61 L 131 72 L 121 72 Z M 121 61 " clip-rule="nonzero"/></clipPath><clipPath id="6ce338be59"><path d="M 18.796875 18.328125 L 18.796875 93.671875 C 18.796875 99.445312 23.476562 104.125 29.25 104.125 L 120.75 104.125 C 126.523438 104.125 131.203125 99.445312 131.203125 93.671875 L 131.203125 18.328125 C 131.203125 12.554688 126.523438 7.875 120.75 7.875 L 29.25 7.875 C 23.476562 7.875 18.796875 12.554688 18.796875 18.328125 Z M 18.796875 18.328125 " clip-rule="nonzero"/></clipPath><clipPath id="e3d6e68f42"><path d="M 21 77 L 32 77 L 32 88 L 21 88 Z M 21 77 " clip-rule="nonzero"/></clipPath><clipPath id="6ea0364b97"><path d="M 18.796875 18.328125 L 18.796875 93.671875 C 18.796875 99.445312 23.476562 104.125 29.25 104.125 L 120.75 104.125 C 126.523438 104.125 131.203125 99.445312 131.203125 93.671875 L 131.203125 18.328125 C 131.203125 12.554688 126.523438 7.875 120.75 7.875 L 29.25 7.875 C 23.476562 7.875 18.796875 12.554688 18.796875 18.328125 Z M 18.796875 18.328125 " clip-rule="nonzero"/></clipPath><clipPath id="caa7236576"><path d="M 41 77 L 52 77 L 52 88 L 41 88 Z M 41 77 " clip-rule="nonzero"/></clipPath><clipPath id="85e6d09889"><path d="M 18.796875 18.328125 L 18.796875 93.671875 C 18.796875 99.445312 23.476562 104.125 29.25 104.125 L 120.75 104.125 C 126.523438 104.125 131.203125 99.445312 131.203125 93.671875 L 131.203125 18.328125 C 131.203125 12.554688 126.523438 7.875 120.75 7.875 L 29.25 7.875 C 23.476562 7.875 18.796875 12.554688 18.796875 18.328125 Z M 18.796875 18.328125 " clip-rule="nonzero"/></clipPath><clipPath id="501473c2c0"><path d="M 61 77 L 72 77 L 72 88 L 61 88 Z M 61 77 " clip-rule="nonzero"/></clipPath><clipPath id="4d6cdbac26"><path d="M 18.796875 18.328125 L 18.796875 93.671875 C 18.796875 99.445312 23.476562 104.125 29.25 104.125 L 120.75 104.125 C 126.523438 104.125 131.203125 99.445312 131.203125 93.671875 L 131.203125 18.328125 C 131.203125 12.554688 126.523438 7.875 120.75 7.875 L 29.25 7.875 C 23.476562 7.875 18.796875 12.554688 18.796875 18.328125 Z M 18.796875 18.328125 " clip-rule="nonzero"/></clipPath><clipPath id="025552c47c"><path d="M 81 77 L 92 77 L 92 88 L 81 88 Z M 81 77 " clip-rule="nonzero"/></clipPath><clipPath id="3b05e7279e"><path d="M 18.796875 18.328125 L 18.796875 93.671875 C 18.796875 99.445312 23.476562 104.125 29.25 104.125 L 120.75 104.125 C 126.523438 104.125 131.203125 99.445312 131.203125 93.671875 L 131.203125 18.328125 C 131.203125 12.554688 126.523438 7.875 120.75 7.875 L 29.25 7.875 C 23.476562 7.875 18.796875 12.554688 18.796875 18.328125 Z M 18.796875 18.328125 " clip-rule="nonzero"/></clipPath><clipPath id="ded7394c1f"><path d="M 101 77 L 112 77 L 112 88 L 101 88 Z M 101 77 " clip-rule="nonzero"/></clipPath><clipPath id="203614f640"><path d="M 18.796875 18.328125 L 18.796875 93.671875 C 18.796875 99.445312 23.476562 104.125 29.25 104.125 L 120.75 104.125 C 126.523438 104.125 131.203125 99.445312 131.203125 93.671875 L 131.203125 18.328125 C 131.203125 12.554688 126.523438 7.875 120.75 7.875 L 29.25 7.875 C 23.476562 7.875 18.796875 12.554688 18.796875 18.328125 Z M 18.796875 18.328125 " clip-rule="nonzero"/></clipPath><clipPath id="2a04bb1203"><path d="M 121 77 L 131 77 L 131 88 L 121 88 Z M 121 77 " clip-rule="nonzero"/></clipPath><clipPath id="d7a8f3e582"><path d="M 18.796875 18.328125 L 18.796875 93.671875 C 18.796875 99.445312 23.476562 104.125 29.25 104.125 L 120.75 104.125 C 126.523438 104.125 131.203125 99.445312 131.203125 93.671875 L 131.203125 18.328125 C 131.203125 12.554688 126.523438 7.875 120.75 7.875 L 29.25 7.875 C 23.476562 7.875 18.796875 12.554688 18.796875 18.328125 Z M 18.796875 18.328125 " clip-rule="nonzero"/></clipPath><clipPath id="e2d86342f4"><path d="M 21.871094 93.929688 L 31.09375 93.929688 L 31.09375 104.042969 L 21.871094 104.042969 Z M 21.871094 93.929688 " clip-rule="nonzero"/></clipPath><clipPath id="e353eead21"><path d="M 18.796875 18.328125 L 18.796875 93.671875 C 18.796875 99.445312 23.476562 104.125 29.25 104.125 L 120.75 104.125 C 126.523438 104.125 131.203125 99.445312 131.203125 93.671875 L 131.203125 18.328125 C 131.203125 12.554688 126.523438 7.875 120.75 7.875 L 29.25 7.875 C 23.476562 7.875 18.796875 12.554688 18.796875 18.328125 Z M 18.796875 18.328125 " clip-rule="nonzero"/></clipPath><clipPath id="8bf8761bf8"><path d="M 41.84375 93.929688 L 51.117188 93.929688 L 51.117188 104.042969 L 41.84375 104.042969 Z M 41.84375 93.929688 " clip-rule="nonzero"/></clipPath><clipPath id="b3ecf7e6c4"><path d="M 18.796875 18.328125 L 18.796875 93.671875 C 18.796875 99.445312 23.476562 104.125 29.25 104.125 L 120.75 104.125 C 126.523438 104.125 131.203125 99.445312 131.203125 93.671875 L 131.203125 18.328125 C 131.203125 12.554688 126.523438 7.875 120.75 7.875 L 29.25 7.875 C 23.476562 7.875 18.796875 12.554688 18.796875 18.328125 Z M 18.796875 18.328125 " clip-rule="nonzero"/></clipPath><clipPath id="3122272336"><path d="M 61.8125 93.929688 L 71.085938 93.929688 L 71.085938 104.042969 L 61.8125 104.042969 Z M 61.8125 93.929688 " clip-rule="nonzero"/></clipPath><clipPath id="22b2487c62"><path d="M 18.796875 18.328125 L 18.796875 93.671875 C 18.796875 99.445312 23.476562 104.125 29.25 104.125 L 120.75 104.125 C 126.523438 104.125 131.203125 99.445312 131.203125 93.671875 L 131.203125 18.328125 C 131.203125 12.554688 126.523438 7.875 120.75 7.875 L 29.25 7.875 C 23.476562 7.875 18.796875 12.554688 18.796875 18.328125 Z M 18.796875 18.328125 " clip-rule="nonzero"/></clipPath><clipPath id="23089dca2d"><path d="M 81.78125 93.929688 L 91.058594 93.929688 L 91.058594 104.042969 L 81.78125 104.042969 Z M 81.78125 93.929688 " clip-rule="nonzero"/></clipPath><clipPath id="2589f33872"><path d="M 18.796875 18.328125 L 18.796875 93.671875 C 18.796875 99.445312 23.476562 104.125 29.25 104.125 L 120.75 104.125 C 126.523438 104.125 131.203125 99.445312 131.203125 93.671875 L 131.203125 18.328125 C 131.203125 12.554688 126.523438 7.875 120.75 7.875 L 29.25 7.875 C 23.476562 7.875 18.796875 12.554688 18.796875 18.328125 Z M 18.796875 18.328125 " clip-rule="nonzero"/></clipPath><clipPath id="d34c90f098"><path d="M 101.75 93.929688 L 111.027344 93.929688 L 111.027344 104.042969 L 101.75 104.042969 Z M 101.75 93.929688 " clip-rule="nonzero"/></clipPath><clipPath id="7652d2b27b"><path d="M 18.796875 18.328125 L 18.796875 93.671875 C 18.796875 99.445312 23.476562 104.125 29.25 104.125 L 120.75 104.125 C 126.523438 104.125 131.203125 99.445312 131.203125 93.671875 L 131.203125 18.328125 C 131.203125 12.554688 126.523438 7.875 120.75 7.875 L 29.25 7.875 C 23.476562 7.875 18.796875 12.554688 18.796875 18.328125 Z M 18.796875 18.328125 " clip-rule="nonzero"/></clipPath><clipPath id="68690d6aaf"><path d="M 121.777344 93.929688 L 130.996094 93.929688 L 130.996094 104.042969 L 121.777344 104.042969 Z M 121.777344 93.929688 " clip-rule="nonzero"/></clipPath><clipPath id="9c8be0f250"><path d="M 18.796875 18.328125 L 18.796875 93.671875 C 18.796875 99.445312 23.476562 104.125 29.25 104.125 L 120.75 104.125 C 126.523438 104.125 131.203125 99.445312 131.203125 93.671875 L 131.203125 18.328125 C 131.203125 12.554688 126.523438 7.875 120.75 7.875 L 29.25 7.875 C 23.476562 7.875 18.796875 12.554688 18.796875 18.328125 Z M 18.796875 18.328125 " clip-rule="nonzero"/></clipPath></defs><g clip-path="url(#ae0c97b766)"><g clip-path="url(#09fa9f3f82)"><path stroke-linecap="butt" transform="matrix(0.397381, 0, 0, 0.397381, 8.851271, 4.228462)" fill="none" stroke-linejoin="miter" d="M 35.703238 -0.00478078 L 297.220145 -0.00478078 C 306.68642 -0.00478078 315.769326 3.760103 322.463545 10.454323 C 329.157765 17.148542 332.922649 26.231448 332.922649 35.697723 L 332.922649 224.865944 C 332.922649 234.332219 329.157765 243.415125 322.463545 250.109345 C 315.769326 256.803564 306.68642 260.558618 297.220145 260.558618 L 35.703238 260.558618 C 26.227133 260.558618 17.154057 256.803564 10.459837 250.109345 C 3.765618 243.415125 0.000733995 234.332219 0.000733995 224.865944 L 0.000733995 35.697723 C 0.000733995 26.231448 3.765618 17.148542 10.459837 10.454323 C 17.154057 3.760103 26.227133 -0.00478078 35.703238 -0.00478078 Z M 35.703238 -0.00478078 " stroke="#8cbcdc" stroke-width="15.032044" stroke-opacity="1" stroke-miterlimit="4"/></g></g><g clip-path="url(#4c49ad3d2a)"><g clip-path="url(#9a1c60fc5f)"><path fill="#8cbcdc" d="M 29.328125 20.890625 C 30.96875 19.804688 31.296875 17.644531 30.988281 15.875 C 30.957031 15.699219 30.90625 15.519531 30.839844 15.351562 C 27.828125 7.886719 18.792969 13.105469 22.945312 20.058594 C 23.613281 21.175781 24.820312 21.871094 26.125 21.835938 C 26.964844 21.808594 27.8125 21.558594 28.625 21.246094 C 28.871094 21.152344 29.109375 21.035156 29.328125 20.890625 " fill-opacity="1" fill-rule="nonzero"/></g></g><g clip-path="url(#8f2bcc319a)"><g clip-path="url(#9ad99505e9)"><path fill="#8cbcdc" d="M 49.308594 20.890625 C 50.949219 19.804688 51.277344 17.644531 50.96875 15.875 C 50.9375 15.699219 50.886719 15.519531 50.820312 15.351562 C 47.808594 7.886719 38.773438 13.105469 42.925781 20.058594 C 43.59375 21.175781 44.800781 21.871094 46.105469 21.835938 C 46.945312 21.808594 47.792969 21.558594 48.609375 21.246094 C 48.851562 21.152344 49.089844 21.035156 49.308594 20.890625 " fill-opacity="1" fill-rule="nonzero"/></g></g><g clip-path="url(#200d23b904)"><g clip-path="url(#8667c33998)"><path fill="#8cbcdc" d="M 69.289062 20.890625 C 70.929688 19.804688 71.257812 17.644531 70.953125 15.875 C 70.921875 15.699219 70.867188 15.519531 70.800781 15.351562 C 67.789062 7.886719 58.753906 13.105469 62.90625 20.058594 C 63.574219 21.175781 64.785156 21.871094 66.085938 21.835938 C 66.925781 21.808594 67.777344 21.558594 68.589844 21.246094 C 68.832031 21.152344 69.070312 21.035156 69.289062 20.890625 " fill-opacity="1" fill-rule="nonzero"/></g></g><g clip-path="url(#5efda6cb51)"><g clip-path="url(#cd349134ca)"><path fill="#8cbcdc" d="M 89.269531 20.890625 C 90.910156 19.804688 91.238281 17.644531 90.933594 15.875 C 90.902344 15.699219 90.851562 15.519531 90.78125 15.351562 C 87.773438 7.886719 78.734375 13.105469 82.886719 20.058594 C 83.554688 21.175781 84.765625 21.871094 86.066406 21.835938 C 86.90625 21.808594 87.757812 21.558594 88.570312 21.246094 C 88.816406 21.152344 89.050781 21.035156 89.269531 20.890625 " fill-opacity="1" fill-rule="nonzero"/></g></g><g clip-path="url(#3781e93590)"><g clip-path="url(#fa10316f98)"><path fill="#8cbcdc" d="M 109.253906 20.890625 C 110.890625 19.804688 111.21875 17.644531 110.914062 15.875 C 110.882812 15.699219 110.832031 15.519531 110.761719 15.351562 C 107.753906 7.886719 98.71875 13.105469 102.867188 20.058594 C 103.539062 21.175781 104.746094 21.871094 106.046875 21.835938 C 106.886719 21.808594 107.738281 21.558594 108.550781 21.246094 C 108.796875 21.152344 109.03125 21.035156 109.253906 20.890625 " fill-opacity="1" fill-rule="nonzero"/></g></g><g clip-path="url(#a12efc3d21)"><g clip-path="url(#96223ee9cf)"><path fill="#8cbcdc" d="M 129.234375 20.890625 C 130.871094 19.804688 131.199219 17.644531 130.894531 15.875 C 130.863281 15.699219 130.8125 15.519531 130.742188 15.351562 C 127.734375 7.886719 118.699219 13.105469 122.851562 20.058594 C 123.519531 21.175781 124.726562 21.871094 126.03125 21.835938 C 126.867188 21.808594 127.71875 21.558594 128.53125 21.246094 C 128.777344 21.152344 129.015625 21.035156 129.234375 20.890625 " fill-opacity="1" fill-rule="nonzero"/></g></g><g clip-path="url(#d0daeb2712)"><g clip-path="url(#8eff85a88c)"><path fill="#8cbcdc" d="M 29.328125 37.347656 C 30.96875 36.257812 31.296875 34.101562 30.988281 32.332031 C 30.957031 32.152344 30.90625 31.976562 30.839844 31.808594 C 27.828125 24.34375 18.792969 29.5625 22.945312 36.511719 C 23.613281 37.632812 24.820312 38.328125 26.125 38.289062 C 26.964844 38.265625 27.8125 38.011719 28.625 37.703125 C 28.871094 37.605469 29.109375 37.492188 29.328125 37.347656 " fill-opacity="1" fill-rule="nonzero"/></g></g><g clip-path="url(#33993f3449)"><g clip-path="url(#d14b50808d)"><path fill="#8cbcdc" d="M 49.308594 37.347656 C 50.949219 36.257812 51.277344 34.101562 50.96875 32.332031 C 50.9375 32.152344 50.886719 31.976562 50.820312 31.808594 C 47.808594 24.34375 38.773438 29.5625 42.925781 36.511719 C 43.59375 37.632812 44.800781 38.328125 46.105469 38.289062 C 46.945312 38.265625 47.792969 38.011719 48.609375 37.703125 C 48.851562 37.605469 49.089844 37.492188 49.308594 37.347656 " fill-opacity="1" fill-rule="nonzero"/></g></g><g clip-path="url(#77da60dcb8)"><g clip-path="url(#d67f45308e)"><path fill="#8cbcdc" d="M 69.289062 37.347656 C 70.929688 36.257812 71.257812 34.101562 70.953125 32.332031 C 70.921875 32.152344 70.867188 31.976562 70.800781 31.808594 C 67.789062 24.34375 58.753906 29.5625 62.90625 36.511719 C 63.574219 37.632812 64.785156 38.328125 66.085938 38.289062 C 66.925781 38.265625 67.777344 38.011719 68.589844 37.703125 C 68.832031 37.605469 69.070312 37.492188 69.289062 37.347656 " fill-opacity="1" fill-rule="nonzero"/></g></g><g clip-path="url(#f57281f384)"><g clip-path="url(#a561a26546)"><path fill="#8cbcdc" d="M 89.269531 37.347656 C 90.910156 36.257812 91.238281 34.101562 90.933594 32.332031 C 90.902344 32.152344 90.851562 31.976562 90.78125 31.808594 C 87.773438 24.34375 78.734375 29.5625 82.886719 36.511719 C 83.554688 37.632812 84.765625 38.328125 86.066406 38.289062 C 86.90625 38.265625 87.757812 38.011719 88.570312 37.703125 C 88.816406 37.605469 89.050781 37.492188 89.269531 37.347656 " fill-opacity="1" fill-rule="nonzero"/></g></g><g clip-path="url(#bbeb8c10ab)"><g clip-path="url(#f25ee76b05)"><path fill="#8cbcdc" d="M 109.253906 37.347656 C 110.890625 36.257812 111.21875 34.101562 110.914062 32.332031 C 110.882812 32.152344 110.832031 31.976562 110.761719 31.808594 C 107.753906 24.34375 98.71875 29.5625 102.867188 36.511719 C 103.539062 37.632812 104.746094 38.328125 106.046875 38.289062 C 106.886719 38.265625 107.738281 38.011719 108.550781 37.703125 C 108.796875 37.605469 109.03125 37.492188 109.253906 37.347656 " fill-opacity="1" fill-rule="nonzero"/></g></g><g clip-path="url(#d86f966c1a)"><g clip-path="url(#5ca31e61ee)"><path fill="#8cbcdc" d="M 129.234375 37.347656 C 130.871094 36.257812 131.199219 34.101562 130.894531 32.332031 C 130.863281 32.152344 130.8125 31.976562 130.742188 31.808594 C 127.734375 24.34375 118.699219 29.5625 122.851562 36.511719 C 123.519531 37.632812 124.726562 38.328125 126.03125 38.289062 C 126.867188 38.265625 127.71875 38.011719 128.53125 37.703125 C 128.777344 37.605469 129.015625 37.492188 129.234375 37.347656 " fill-opacity="1" fill-rule="nonzero"/></g></g><g clip-path="url(#32d9d8be48)"><g clip-path="url(#929eacd89f)"><path fill="#8cbcdc" d="M 29.328125 53.800781 C 30.96875 52.714844 31.296875 50.554688 30.988281 48.785156 C 30.957031 48.605469 30.90625 48.429688 30.839844 48.261719 C 27.828125 40.796875 18.792969 46.015625 22.945312 52.96875 C 23.613281 54.085938 24.820312 54.78125 26.125 54.746094 C 26.964844 54.71875 27.8125 54.46875 28.625 54.15625 C 28.871094 54.0625 29.109375 53.945312 29.328125 53.800781 " fill-opacity="1" fill-rule="nonzero"/></g></g><g clip-path="url(#448eb0f8ab)"><g clip-path="url(#d611f8b521)"><path fill="#8cbcdc" d="M 49.308594 53.800781 C 50.949219 52.714844 51.277344 50.554688 50.96875 48.785156 C 50.9375 48.605469 50.886719 48.429688 50.820312 48.261719 C 47.808594 40.796875 38.773438 46.015625 42.925781 52.96875 C 43.59375 54.085938 44.800781 54.78125 46.105469 54.746094 C 46.945312 54.71875 47.792969 54.46875 48.609375 54.15625 C 48.851562 54.0625 49.089844 53.945312 49.308594 53.800781 " fill-opacity="1" fill-rule="nonzero"/></g></g><g clip-path="url(#21c1777f73)"><g clip-path="url(#37d767146d)"><path fill="#8cbcdc" d="M 69.289062 53.800781 C 70.929688 52.714844 71.257812 50.554688 70.953125 48.785156 C 70.921875 48.605469 70.867188 48.429688 70.800781 48.261719 C 67.789062 40.796875 58.753906 46.015625 62.90625 52.96875 C 63.574219 54.085938 64.785156 54.78125 66.085938 54.746094 C 66.925781 54.71875 67.777344 54.46875 68.589844 54.15625 C 68.832031 54.0625 69.070312 53.945312 69.289062 53.800781 " fill-opacity="1" fill-rule="nonzero"/></g></g><g clip-path="url(#6d86d3771f)"><g clip-path="url(#b603375dd9)"><path fill="#8cbcdc" d="M 89.269531 53.800781 C 90.910156 52.714844 91.238281 50.554688 90.933594 48.785156 C 90.902344 48.605469 90.851562 48.429688 90.78125 48.261719 C 87.773438 40.796875 78.734375 46.015625 82.886719 52.96875 C 83.554688 54.085938 84.765625 54.78125 86.066406 54.746094 C 86.90625 54.71875 87.757812 54.46875 88.570312 54.15625 C 88.816406 54.0625 89.050781 53.945312 89.269531 53.800781 " fill-opacity="1" fill-rule="nonzero"/></g></g><g clip-path="url(#d8b8c3a9b4)"><g clip-path="url(#c045442a0f)"><path fill="#8cbcdc" d="M 109.253906 53.800781 C 110.890625 52.714844 111.21875 50.554688 110.914062 48.785156 C 110.882812 48.605469 110.832031 48.429688 110.761719 48.261719 C 107.753906 40.796875 98.71875 46.015625 102.867188 52.96875 C 103.539062 54.085938 104.746094 54.78125 106.046875 54.746094 C 106.886719 54.71875 107.738281 54.46875 108.550781 54.15625 C 108.796875 54.0625 109.03125 53.945312 109.253906 53.800781 " fill-opacity="1" fill-rule="nonzero"/></g></g><g clip-path="url(#e5cdb0b199)"><g clip-path="url(#b54ccd32d4)"><path fill="#8cbcdc" d="M 129.234375 53.800781 C 130.871094 52.714844 131.199219 50.554688 130.894531 48.785156 C 130.863281 48.605469 130.8125 48.429688 130.742188 48.261719 C 127.734375 40.796875 118.699219 46.015625 122.851562 52.96875 C 123.519531 54.085938 124.726562 54.78125 126.03125 54.746094 C 126.867188 54.71875 127.71875 54.46875 128.53125 54.15625 C 128.777344 54.0625 129.015625 53.945312 129.234375 53.800781 " fill-opacity="1" fill-rule="nonzero"/></g></g><g clip-path="url(#efcd7d5acb)"><g clip-path="url(#86f9227125)"><path fill="#8cbcdc" d="M 29.328125 70.257812 C 30.96875 69.167969 31.296875 67.011719 30.988281 65.242188 C 30.957031 65.0625 30.90625 64.886719 30.839844 64.71875 C 27.828125 57.253906 18.792969 62.472656 22.945312 69.421875 C 23.613281 70.542969 24.820312 71.238281 26.125 71.199219 C 26.964844 71.175781 27.8125 70.921875 28.625 70.609375 C 28.871094 70.515625 29.109375 70.402344 29.328125 70.257812 " fill-opacity="1" fill-rule="nonzero"/></g></g><g clip-path="url(#d88df3700f)"><g clip-path="url(#248df7277d)"><path fill="#8cbcdc" d="M 49.308594 70.257812 C 50.949219 69.167969 51.277344 67.011719 50.96875 65.242188 C 50.9375 65.0625 50.886719 64.886719 50.820312 64.71875 C 47.808594 57.253906 38.773438 62.472656 42.925781 69.421875 C 43.59375 70.542969 44.800781 71.238281 46.105469 71.199219 C 46.945312 71.175781 47.792969 70.921875 48.609375 70.609375 C 48.851562 70.515625 49.089844 70.402344 49.308594 70.257812 " fill-opacity="1" fill-rule="nonzero"/></g></g><g clip-path="url(#b28b2daf69)"><g clip-path="url(#c5169d1f1a)"><path fill="#8cbcdc" d="M 69.289062 70.257812 C 70.929688 69.167969 71.257812 67.011719 70.953125 65.242188 C 70.921875 65.0625 70.867188 64.886719 70.800781 64.71875 C 67.789062 57.253906 58.753906 62.472656 62.90625 69.421875 C 63.574219 70.542969 64.785156 71.238281 66.085938 71.199219 C 66.925781 71.175781 67.777344 70.921875 68.589844 70.609375 C 68.832031 70.515625 69.070312 70.402344 69.289062 70.257812 " fill-opacity="1" fill-rule="nonzero"/></g></g><g clip-path="url(#d5dac3aa79)"><g clip-path="url(#04552aef3e)"><path fill="#8cbcdc" d="M 89.269531 70.257812 C 90.910156 69.167969 91.238281 67.011719 90.933594 65.242188 C 90.902344 65.0625 90.851562 64.886719 90.78125 64.71875 C 87.773438 57.253906 78.734375 62.472656 82.886719 69.421875 C 83.554688 70.542969 84.765625 71.238281 86.066406 71.199219 C 86.90625 71.175781 87.757812 70.921875 88.570312 70.609375 C 88.816406 70.515625 89.050781 70.402344 89.269531 70.257812 " fill-opacity="1" fill-rule="nonzero"/></g></g><g clip-path="url(#60ecc5fa14)"><g clip-path="url(#8078a33435)"><path fill="#8cbcdc" d="M 109.253906 70.257812 C 110.890625 69.167969 111.21875 67.011719 110.914062 65.242188 C 110.882812 65.0625 110.832031 64.886719 110.761719 64.71875 C 107.753906 57.253906 98.71875 62.472656 102.867188 69.421875 C 103.539062 70.542969 104.746094 71.238281 106.046875 71.199219 C 106.886719 71.175781 107.738281 70.921875 108.550781 70.609375 C 108.796875 70.515625 109.03125 70.402344 109.253906 70.257812 " fill-opacity="1" fill-rule="nonzero"/></g></g><g clip-path="url(#5bb1007bf3)"><g clip-path="url(#6ce338be59)"><path fill="#8cbcdc" d="M 129.234375 70.257812 C 130.871094 69.167969 131.199219 67.011719 130.894531 65.242188 C 130.863281 65.0625 130.8125 64.886719 130.742188 64.71875 C 127.734375 57.253906 118.699219 62.472656 122.851562 69.421875 C 123.519531 70.542969 124.726562 71.238281 126.03125 71.199219 C 126.867188 71.175781 127.71875 70.921875 128.53125 70.609375 C 128.777344 70.515625 129.015625 70.402344 129.234375 70.257812 " fill-opacity="1" fill-rule="nonzero"/></g></g><g clip-path="url(#e3d6e68f42)"><g clip-path="url(#6ea0364b97)"><path fill="#8cbcdc" d="M 29.328125 86.710938 C 30.96875 85.625 31.296875 83.464844 30.988281 81.695312 C 30.957031 81.515625 30.90625 81.339844 30.839844 81.171875 C 27.828125 73.707031 18.792969 78.925781 22.945312 85.878906 C 23.613281 86.996094 24.820312 87.691406 26.125 87.65625 C 26.964844 87.628906 27.8125 87.375 28.625 87.066406 C 28.871094 86.972656 29.109375 86.855469 29.328125 86.710938 " fill-opacity="1" fill-rule="nonzero"/></g></g><g clip-path="url(#caa7236576)"><g clip-path="url(#85e6d09889)"><path fill="#8cbcdc" d="M 49.308594 86.710938 C 50.949219 85.625 51.277344 83.464844 50.96875 81.695312 C 50.9375 81.515625 50.886719 81.339844 50.820312 81.171875 C 47.808594 73.707031 38.773438 78.925781 42.925781 85.878906 C 43.59375 86.996094 44.800781 87.691406 46.105469 87.65625 C 46.945312 87.628906 47.792969 87.375 48.609375 87.066406 C 48.851562 86.972656 49.089844 86.855469 49.308594 86.710938 " fill-opacity="1" fill-rule="nonzero"/></g></g><g clip-path="url(#501473c2c0)"><g clip-path="url(#4d6cdbac26)"><path fill="#8cbcdc" d="M 69.289062 86.710938 C 70.929688 85.625 71.257812 83.464844 70.953125 81.695312 C 70.921875 81.515625 70.867188 81.339844 70.800781 81.171875 C 67.789062 73.707031 58.753906 78.925781 62.90625 85.878906 C 63.574219 86.996094 64.785156 87.691406 66.085938 87.65625 C 66.925781 87.628906 67.777344 87.375 68.589844 87.066406 C 68.832031 86.972656 69.070312 86.855469 69.289062 86.710938 " fill-opacity="1" fill-rule="nonzero"/></g></g><g clip-path="url(#025552c47c)"><g clip-path="url(#3b05e7279e)"><path fill="#8cbcdc" d="M 89.269531 86.710938 C 90.910156 85.625 91.238281 83.464844 90.933594 81.695312 C 90.902344 81.515625 90.851562 81.339844 90.78125 81.171875 C 87.773438 73.707031 78.734375 78.925781 82.886719 85.878906 C 83.554688 86.996094 84.765625 87.691406 86.066406 87.65625 C 86.90625 87.628906 87.757812 87.375 88.570312 87.066406 C 88.816406 86.972656 89.050781 86.855469 89.269531 86.710938 " fill-opacity="1" fill-rule="nonzero"/></g></g><g clip-path="url(#ded7394c1f)"><g clip-path="url(#203614f640)"><path fill="#8cbcdc" d="M 109.253906 86.710938 C 110.890625 85.625 111.21875 83.464844 110.914062 81.695312 C 110.882812 81.515625 110.832031 81.339844 110.761719 81.171875 C 107.753906 73.707031 98.71875 78.925781 102.867188 85.878906 C 103.539062 86.996094 104.746094 87.691406 106.046875 87.65625 C 106.886719 87.628906 107.738281 87.375 108.550781 87.066406 C 108.796875 86.972656 109.03125 86.855469 109.253906 86.710938 " fill-opacity="1" fill-rule="nonzero"/></g></g><g clip-path="url(#2a04bb1203)"><g clip-path="url(#d7a8f3e582)"><path fill="#8cbcdc" d="M 129.234375 86.710938 C 130.871094 85.625 131.199219 83.464844 130.894531 81.695312 C 130.863281 81.515625 130.8125 81.339844 130.742188 81.171875 C 127.734375 73.707031 118.699219 78.925781 122.851562 85.878906 C 123.519531 86.996094 124.726562 87.691406 126.03125 87.65625 C 126.867188 87.628906 127.71875 87.375 128.53125 87.066406 C 128.777344 86.972656 129.015625 86.855469 129.234375 86.710938 " fill-opacity="1" fill-rule="nonzero"/></g></g><g clip-path="url(#e2d86342f4)"><g clip-path="url(#e353eead21)"><path fill="#8cbcdc" d="M 29.328125 103.167969 C 30.96875 102.078125 31.296875 99.921875 30.988281 98.152344 C 30.957031 97.972656 30.90625 97.796875 30.839844 97.625 C 27.828125 90.160156 18.792969 95.382812 22.945312 102.332031 C 23.613281 103.453125 24.820312 104.148438 26.125 104.109375 C 26.964844 104.085938 27.8125 103.832031 28.625 103.519531 C 28.871094 103.425781 29.109375 103.3125 29.328125 103.167969 " fill-opacity="1" fill-rule="nonzero"/></g></g><g clip-path="url(#8bf8761bf8)"><g clip-path="url(#b3ecf7e6c4)"><path fill="#8cbcdc" d="M 49.308594 103.167969 C 50.949219 102.078125 51.277344 99.921875 50.96875 98.152344 C 50.9375 97.972656 50.886719 97.796875 50.820312 97.625 C 47.808594 90.160156 38.773438 95.382812 42.925781 102.332031 C 43.59375 103.453125 44.800781 104.148438 46.105469 104.109375 C 46.945312 104.085938 47.792969 103.832031 48.609375 103.519531 C 48.851562 103.425781 49.089844 103.3125 49.308594 103.167969 " fill-opacity="1" fill-rule="nonzero"/></g></g><g clip-path="url(#3122272336)"><g clip-path="url(#22b2487c62)"><path fill="#8cbcdc" d="M 69.289062 103.167969 C 70.929688 102.078125 71.257812 99.921875 70.953125 98.152344 C 70.921875 97.972656 70.867188 97.796875 70.800781 97.625 C 67.789062 90.160156 58.753906 95.382812 62.90625 102.332031 C 63.574219 103.453125 64.785156 104.148438 66.085938 104.109375 C 66.925781 104.085938 67.777344 103.832031 68.589844 103.519531 C 68.832031 103.425781 69.070312 103.3125 69.289062 103.167969 " fill-opacity="1" fill-rule="nonzero"/></g></g><g clip-path="url(#23089dca2d)"><g clip-path="url(#2589f33872)"><path fill="#8cbcdc" d="M 89.269531 103.167969 C 90.910156 102.078125 91.238281 99.921875 90.933594 98.152344 C 90.902344 97.972656 90.851562 97.796875 90.78125 97.625 C 87.773438 90.160156 78.734375 95.382812 82.886719 102.332031 C 83.554688 103.453125 84.765625 104.148438 86.066406 104.109375 C 86.90625 104.085938 87.757812 103.832031 88.570312 103.519531 C 88.816406 103.425781 89.050781 103.3125 89.269531 103.167969 " fill-opacity="1" fill-rule="nonzero"/></g></g><g clip-path="url(#d34c90f098)"><g clip-path="url(#7652d2b27b)"><path fill="#8cbcdc" d="M 109.253906 103.167969 C 110.890625 102.078125 111.21875 99.921875 110.914062 98.152344 C 110.882812 97.972656 110.832031 97.796875 110.761719 97.625 C 107.753906 90.160156 98.71875 95.382812 102.867188 102.332031 C 103.539062 103.453125 104.746094 104.148438 106.046875 104.109375 C 106.886719 104.085938 107.738281 103.832031 108.550781 103.519531 C 108.796875 103.425781 109.03125 103.3125 109.253906 103.167969 " fill-opacity="1" fill-rule="nonzero"/></g></g><g clip-path="url(#68690d6aaf)"><g clip-path="url(#9c8be0f250)"><path fill="#8cbcdc" d="M 129.234375 103.167969 C 130.871094 102.078125 131.199219 99.921875 130.894531 98.152344 C 130.863281 97.972656 130.8125 97.796875 130.742188 97.625 C 127.734375 90.160156 118.699219 95.382812 122.851562 102.332031 C 123.519531 103.453125 124.726562 104.148438 126.03125 104.109375 C 126.867188 104.085938 127.71875 103.832031 128.53125 103.519531 C 128.777344 103.425781 129.015625 103.3125 129.234375 103.167969 " fill-opacity="1" fill-rule="nonzero"/></g></g></svg>