<svg xmlns="http://www.w3.org/2000/svg" xmlns:xlink="http://www.w3.org/1999/xlink" width="200" zoomAndPan="magnify" viewBox="0 0 150 112.499997" height="150" preserveAspectRatio="xMidYMid meet" version="1.0"><defs><clipPath id="ce32ac27cb"><path d="M 63 73 L 95 73 L 95 111.191406 L 63 111.191406 Z M 63 73 " clip-rule="nonzero"/></clipPath><clipPath id="2dafd45378"><path d="M 19.683594 36 L 58 36 L 58 68 L 19.683594 68 Z M 19.683594 36 " clip-rule="nonzero"/></clipPath></defs><path fill="#8cbcdc" d="M 121.273438 12.148438 C 120.929688 10.972656 120.015625 10.058594 118.84375 9.714844 C 118.84375 9.714844 88.25 0.609375 63.078125 25.777344 C 50.675781 38.179688 37.769531 58.480469 36.777344 70.117188 C 36.6875 71.171875 37.066406 72.214844 37.816406 72.964844 L 58.027344 93.171875 C 58.773438 93.925781 59.816406 94.304688 60.871094 94.210938 C 72.507812 93.21875 92.808594 80.3125 105.214844 67.910156 C 130.378906 42.738281 121.273438 12.148438 121.273438 12.148438 Z M 114.839844 16.15625 C 116.117188 22.726562 118.546875 44.414062 100.132812 62.828125 C 89.457031 73.507812 72.546875 84.980469 61.859375 86.847656 C 61.859375 86.847656 44.144531 69.132812 44.144531 69.132812 C 46.015625 58.441406 57.480469 41.53125 68.160156 30.859375 C 86.574219 12.445312 108.269531 14.871094 114.835938 16.152344 Z M 114.839844 16.15625 " fill-opacity="1" fill-rule="evenodd"/><path fill="#8cbcdc" d="M 100.160156 30.828125 C 94.113281 24.78125 84.285156 24.78125 78.238281 30.828125 C 72.1875 36.878906 72.1875 46.703125 78.238281 52.753906 C 84.285156 58.800781 94.113281 58.800781 100.160156 52.753906 C 106.210938 46.703125 106.210938 36.878906 100.160156 30.828125 Z M 95.078125 35.910156 C 98.328125 39.15625 98.328125 44.425781 95.078125 47.671875 C 91.832031 50.917969 86.566406 50.917969 83.316406 47.671875 C 80.070312 44.425781 80.070312 39.15625 83.316406 35.910156 C 86.566406 32.664062 91.832031 32.664062 95.078125 35.910156 Z M 95.078125 35.910156 " fill-opacity="1" fill-rule="evenodd"/><path fill="#8cbcdc" d="M 80.046875 80.035156 L 50.953125 50.941406 C 49.554688 49.546875 47.277344 49.546875 45.878906 50.941406 C 44.472656 52.347656 44.472656 54.621094 45.878906 56.023438 L 74.964844 85.113281 C 76.367188 86.515625 78.644531 86.515625 80.046875 85.113281 C 81.445312 83.714844 81.445312 81.433594 80.046875 80.035156 Z M 80.046875 80.035156 " fill-opacity="1" fill-rule="evenodd"/><g clip-path="url(#ce32ac27cb)"><path fill="#8cbcdc" d="M 87.308594 76.835938 C 87.308594 76.835938 86.582031 84.753906 86.085938 90.238281 C 85.902344 92.238281 84.730469 94.011719 82.964844 94.964844 L 70.894531 101.460938 C 70.894531 101.460938 70.894531 90.632812 70.894531 90.632812 C 70.894531 88.652344 69.285156 87.042969 67.304688 87.042969 C 65.320312 87.042969 63.710938 88.652344 63.710938 90.632812 L 63.710938 107.476562 C 63.710938 108.742188 64.378906 109.914062 65.460938 110.5625 C 66.546875 111.207031 67.890625 111.242188 69.007812 110.636719 C 69.007812 110.636719 79.957031 104.742188 86.367188 101.289062 C 90.261719 99.195312 92.84375 95.289062 93.242188 90.886719 C 93.738281 85.40625 94.460938 77.484375 94.460938 77.484375 C 94.640625 75.511719 93.183594 73.761719 91.210938 73.585938 C 89.230469 73.402344 87.484375 74.859375 87.308594 76.835938 Z M 87.308594 76.835938 " fill-opacity="1" fill-rule="evenodd"/></g><g clip-path="url(#2dafd45378)"><path fill="#8cbcdc" d="M 53.507812 36.527344 C 53.507812 36.527344 45.585938 37.25 40.101562 37.75 C 35.699219 38.148438 31.792969 40.726562 29.699219 44.621094 C 26.246094 51.035156 20.351562 61.980469 20.351562 61.980469 C 19.75 63.097656 19.78125 64.445312 20.429688 65.53125 C 21.074219 66.613281 22.25 67.277344 23.511719 67.277344 L 40.355469 67.277344 C 42.339844 67.277344 43.949219 65.667969 43.949219 63.6875 C 43.949219 61.703125 42.339844 60.09375 40.355469 60.09375 L 29.527344 60.09375 L 36.027344 48.027344 C 36.980469 46.257812 38.75 45.085938 40.753906 44.90625 C 46.238281 44.40625 54.152344 43.683594 54.152344 43.683594 C 56.128906 43.507812 57.585938 41.757812 57.40625 39.78125 C 57.226562 37.808594 55.480469 36.351562 53.507812 36.527344 Z M 53.507812 36.527344 " fill-opacity="1" fill-rule="evenodd"/></g><path fill="#8cbcdc" d="M 30.269531 78.796875 L 22.65625 86.410156 C 21.257812 87.8125 21.257812 90.089844 22.65625 91.492188 C 24.058594 92.890625 26.332031 92.890625 27.738281 91.492188 L 35.351562 83.878906 C 36.753906 82.472656 36.753906 80.199219 35.351562 78.796875 C 33.949219 77.394531 31.671875 77.394531 30.269531 78.796875 Z M 30.269531 78.796875 " fill-opacity="1" fill-rule="evenodd"/><path fill="#8cbcdc" d="M 38.695312 87.21875 L 24.339844 101.566406 C 22.9375 102.972656 22.9375 105.246094 24.339844 106.648438 C 25.746094 108.050781 28.019531 108.050781 29.421875 106.648438 L 43.769531 92.296875 C 45.171875 90.898438 45.171875 88.617188 43.769531 87.21875 C 42.371094 85.816406 40.09375 85.816406 38.695312 87.21875 Z M 38.695312 87.21875 " fill-opacity="1" fill-rule="evenodd"/><path fill="#8cbcdc" d="M 47.113281 95.640625 L 39.5 103.253906 C 38.101562 104.65625 38.101562 106.929688 39.5 108.335938 C 40.902344 109.734375 43.175781 109.734375 44.578125 108.335938 L 52.195312 100.71875 C 53.597656 99.316406 53.597656 97.042969 52.195312 95.640625 C 50.792969 94.234375 48.515625 94.234375 47.113281 95.640625 Z M 47.113281 95.640625 " fill-opacity="1" fill-rule="evenodd"/></svg>