<svg xmlns="http://www.w3.org/2000/svg" xmlns:xlink="http://www.w3.org/1999/xlink" width="200" zoomAndPan="magnify" viewBox="0 0 150 112.499997" height="150" preserveAspectRatio="xMidYMid meet" version="1.0"><defs><clipPath id="edaa206d68"><path d="M 2.308594 49 L 72 49 L 72 77.773438 L 2.308594 77.773438 Z M 2.308594 49 " clip-rule="nonzero"/></clipPath><clipPath id="0bd73d94a8"><path d="M 43 34.464844 L 74 34.464844 L 74 67 L 43 67 Z M 43 34.464844 " clip-rule="nonzero"/></clipPath><clipPath id="3b2650f71b"><path d="M 78 49 L 147.910156 49 L 147.910156 77.773438 L 78 77.773438 Z M 78 49 " clip-rule="nonzero"/></clipPath><clipPath id="0b0e3ade17"><path d="M 76 34.464844 L 107 34.464844 L 107 67 L 76 67 Z M 76 34.464844 " clip-rule="nonzero"/></clipPath></defs><g clip-path="url(#edaa206d68)"><path fill="#8cbcdc" d="M 2.484375 49.933594 L 16.554688 77.527344 L 8.472656 55.546875 C 8.472656 55.546875 52.40625 59.238281 71.570312 77.527344 C 71.570312 77.527344 64.53125 56.097656 2.484375 49.933594 Z M 2.484375 49.933594 " fill-opacity="1" fill-rule="nonzero"/></g><path fill="#8cbcdc" d="M 25.074219 39.816406 L 25.074219 49.933594 C 56.59375 53.976562 73.980469 72.003906 73.980469 72.003906 C 61.277344 49.585938 25.074219 39.816406 25.074219 39.816406 Z M 25.074219 39.816406 " fill-opacity="1" fill-rule="nonzero"/><g clip-path="url(#0bd73d94a8)"><path fill="#8cbcdc" d="M 43.597656 34.464844 L 43.597656 43.421875 C 63.628906 51.503906 73.953125 66.625 73.953125 66.625 C 66.886719 45.71875 43.597656 34.464844 43.597656 34.464844 Z M 43.597656 34.464844 " fill-opacity="1" fill-rule="nonzero"/></g><g clip-path="url(#3b2650f71b)"><path fill="#8cbcdc" d="M 147.515625 49.933594 C 85.46875 56.097656 78.429688 77.527344 78.429688 77.527344 C 97.59375 59.238281 141.527344 55.546875 141.527344 55.546875 L 133.445312 77.527344 Z M 147.515625 49.933594 " fill-opacity="1" fill-rule="nonzero"/></g><path fill="#8cbcdc" d="M 124.953125 39.816406 C 124.953125 39.816406 88.753906 49.558594 76.046875 71.976562 C 76.046875 71.976562 93.433594 53.949219 124.953125 49.90625 Z M 124.953125 39.816406 " fill-opacity="1" fill-rule="nonzero"/><g clip-path="url(#0b0e3ade17)"><path fill="#8cbcdc" d="M 106.402344 43.421875 L 106.402344 34.464844 C 106.402344 34.464844 83.113281 45.71875 76.046875 66.625 C 76.046875 66.625 86.367188 51.503906 106.402344 43.421875 Z M 106.402344 43.421875 " fill-opacity="1" fill-rule="nonzero"/></g></svg>