<svg xmlns="http://www.w3.org/2000/svg" xmlns:xlink="http://www.w3.org/1999/xlink" width="500" zoomAndPan="magnify" viewBox="0 0 375 168.749997" height="225" preserveAspectRatio="xMidYMid meet" version="1.0"><defs><clipPath id="49e1c28505"><path d="M 129.320312 11.523438 L 245.398438 11.523438 L 245.398438 156.808594 L 129.320312 156.808594 Z M 129.320312 11.523438 " clip-rule="nonzero"/></clipPath></defs><g clip-path="url(#49e1c28505)"><path fill="#8cbcdc" d="M 238.40625 30.917969 C 239.742188 30.917969 240.828125 32.007812 240.828125 33.339844 L 240.828125 149.699219 C 240.828125 151.035156 239.742188 152.125 238.40625 152.125 L 151.136719 152.125 C 149.800781 152.125 148.710938 151.035156 148.710938 149.699219 L 148.710938 142.429688 L 223.859375 142.429688 C 227.875 142.429688 231.132812 139.171875 231.132812 135.15625 L 231.132812 30.917969 Z M 134.167969 135.15625 L 134.167969 40.613281 L 151.136719 40.613281 C 155.152344 40.613281 158.410156 37.355469 158.410156 33.339844 L 158.410156 16.371094 L 223.859375 16.371094 C 225.195312 16.371094 226.285156 17.460938 226.285156 18.796875 L 226.285156 135.15625 C 226.285156 136.492188 225.195312 137.578125 223.859375 137.578125 L 136.589844 137.578125 C 135.257812 137.578125 134.167969 136.492188 134.167969 135.15625 Z M 153.558594 19.800781 L 153.558594 33.339844 C 153.558594 34.675781 152.472656 35.765625 151.136719 35.765625 L 137.59375 35.765625 Z M 223.859375 11.523438 L 155.984375 11.523438 C 155.339844 11.523438 154.726562 11.78125 154.269531 12.234375 L 130.027344 36.476562 C 129.574219 36.929688 129.320312 37.546875 129.320312 38.191406 L 129.320312 135.15625 C 129.320312 139.171875 132.578125 142.429688 136.589844 142.429688 L 143.863281 142.429688 L 143.863281 149.699219 C 143.863281 153.714844 147.121094 156.972656 151.136719 156.972656 L 238.40625 156.972656 C 242.421875 156.972656 245.679688 153.714844 245.679688 149.699219 L 245.679688 33.339844 C 245.679688 29.328125 242.421875 26.070312 238.40625 26.070312 L 231.132812 26.070312 L 231.132812 18.796875 C 231.132812 14.78125 227.875 11.523438 223.859375 11.523438 " fill-opacity="1" fill-rule="nonzero"/></g><path fill="#8cbcdc" d="M 146.289062 106.066406 L 214.164062 106.066406 C 215.5 106.066406 216.589844 104.976562 216.589844 103.640625 C 216.589844 102.304688 215.5 101.21875 214.164062 101.21875 L 146.289062 101.21875 C 144.953125 101.21875 143.863281 102.304688 143.863281 103.640625 C 143.863281 104.976562 144.953125 106.066406 146.289062 106.066406 " fill-opacity="1" fill-rule="nonzero"/><path fill="#8cbcdc" d="M 175.378906 113.339844 L 172.953125 113.339844 C 171.617188 113.339844 170.53125 114.425781 170.53125 115.761719 C 170.53125 117.097656 171.617188 118.1875 172.953125 118.1875 L 175.378906 118.1875 C 176.714844 118.1875 177.800781 117.097656 177.800781 115.761719 C 177.800781 114.425781 176.714844 113.339844 175.378906 113.339844 " fill-opacity="1" fill-rule="nonzero"/><path fill="#8cbcdc" d="M 160.832031 118.1875 C 162.167969 118.1875 163.257812 117.097656 163.257812 115.761719 C 163.257812 114.425781 162.167969 113.339844 160.832031 113.339844 L 146.289062 113.339844 C 144.953125 113.339844 143.863281 114.425781 143.863281 115.761719 C 143.863281 117.097656 144.953125 118.1875 146.289062 118.1875 L 160.832031 118.1875 " fill-opacity="1" fill-rule="nonzero"/><path fill="#8cbcdc" d="M 146.289062 93.945312 L 153.558594 93.945312 C 154.894531 93.945312 155.984375 92.855469 155.984375 91.519531 C 155.984375 90.1875 154.894531 89.097656 153.558594 89.097656 L 146.289062 89.097656 C 144.953125 89.097656 143.863281 90.1875 143.863281 91.519531 C 143.863281 92.855469 144.953125 93.945312 146.289062 93.945312 " fill-opacity="1" fill-rule="nonzero"/><path fill="#8cbcdc" d="M 163.257812 91.519531 C 163.257812 92.855469 164.347656 93.945312 165.679688 93.945312 L 194.769531 93.945312 C 196.105469 93.945312 197.195312 92.855469 197.195312 91.519531 C 197.195312 90.1875 196.105469 89.097656 194.769531 89.097656 L 165.679688 89.097656 C 164.347656 89.097656 163.257812 90.1875 163.257812 91.519531 " fill-opacity="1" fill-rule="nonzero"/><path fill="#8cbcdc" d="M 206.890625 89.097656 C 205.554688 89.097656 204.46875 90.1875 204.46875 91.519531 C 204.46875 92.855469 205.554688 93.945312 206.890625 93.945312 L 214.164062 93.945312 C 215.5 93.945312 216.589844 92.855469 216.589844 91.519531 C 216.589844 90.1875 215.5 89.097656 214.164062 89.097656 L 206.890625 89.097656 " fill-opacity="1" fill-rule="nonzero"/><path fill="#8cbcdc" d="M 161.542969 81.113281 C 162.015625 81.585938 162.632812 81.824219 163.257812 81.824219 C 163.882812 81.824219 164.496094 81.585938 164.972656 81.113281 C 165.917969 80.167969 165.917969 78.632812 164.972656 77.6875 L 152.140625 64.855469 L 164.972656 52.023438 C 165.917969 51.078125 165.917969 49.542969 164.972656 48.597656 C 164.023438 47.648438 162.488281 47.648438 161.542969 48.597656 L 147 63.140625 C 146.050781 64.089844 146.050781 65.621094 147 66.570312 L 161.542969 81.113281 " fill-opacity="1" fill-rule="nonzero"/><path fill="#8cbcdc" d="M 195.480469 81.113281 C 195.953125 81.585938 196.570312 81.824219 197.195312 81.824219 C 197.820312 81.824219 198.4375 81.585938 198.910156 81.113281 L 213.453125 66.570312 C 214.402344 65.621094 214.402344 64.089844 213.453125 63.140625 L 198.910156 48.597656 C 197.960938 47.648438 196.429688 47.648438 195.480469 48.597656 C 194.535156 49.542969 194.535156 51.078125 195.480469 52.023438 L 208.3125 64.855469 L 195.480469 77.6875 C 194.535156 78.632812 194.535156 80.167969 195.480469 81.113281 " fill-opacity="1" fill-rule="nonzero"/><path fill="#8cbcdc" d="M 171.863281 81.570312 C 172.214844 81.738281 172.585938 81.824219 172.953125 81.824219 C 173.84375 81.824219 174.695312 81.332031 175.121094 80.488281 L 189.667969 51.398438 C 190.261719 50.195312 189.78125 48.738281 188.585938 48.140625 C 187.386719 47.546875 185.925781 48.027344 185.328125 49.222656 L 170.785156 78.3125 C 170.1875 79.515625 170.671875 80.972656 171.863281 81.570312 " fill-opacity="1" fill-rule="nonzero"/></svg>