<svg xmlns="http://www.w3.org/2000/svg" xmlns:xlink="http://www.w3.org/1999/xlink" width="500" zoomAndPan="magnify" viewBox="0 0 375 168.749997" height="225" preserveAspectRatio="xMidYMid meet" version="1.0"><defs><clipPath id="531ef65d34"><path d="M 172 107 L 213 107 L 213 155.640625 L 172 155.640625 Z M 172 107 " clip-rule="nonzero"/></clipPath></defs><path fill="#8cbcdc" d="M 247.4375 27.453125 C 246.992188 25.933594 245.808594 24.75 244.289062 24.300781 C 244.289062 24.300781 204.664062 12.511719 172.0625 45.105469 C 155.996094 61.171875 139.28125 87.464844 137.996094 102.539062 C 137.878906 103.902344 138.367188 105.253906 139.34375 106.222656 L 165.519531 132.398438 C 166.484375 133.371094 167.839844 133.859375 169.203125 133.742188 C 184.277344 132.460938 210.570312 115.742188 226.632812 99.675781 C 259.230469 67.074219 247.4375 27.453125 247.4375 27.453125 Z M 239.101562 32.644531 C 240.757812 41.15625 243.902344 69.246094 220.054688 93.097656 C 206.226562 106.929688 184.324219 121.785156 170.480469 124.203125 C 170.480469 124.203125 147.535156 101.257812 147.535156 101.257812 C 149.960938 87.414062 164.8125 65.511719 178.644531 51.6875 C 202.492188 27.835938 230.589844 30.980469 239.097656 32.636719 Z M 239.101562 32.644531 " fill-opacity="1" fill-rule="evenodd"/><path fill="#8cbcdc" d="M 220.089844 51.648438 C 212.257812 43.816406 199.527344 43.816406 191.695312 51.648438 C 183.859375 59.484375 183.859375 72.210938 191.695312 80.046875 C 199.527344 87.878906 212.257812 87.878906 220.089844 80.046875 C 227.925781 72.210938 227.925781 59.484375 220.089844 51.648438 Z M 213.507812 58.230469 C 217.714844 62.4375 217.714844 69.257812 213.507812 73.464844 C 209.304688 77.671875 202.480469 77.671875 198.273438 73.464844 C 194.070312 69.257812 194.070312 62.4375 198.273438 58.230469 C 202.480469 54.023438 209.304688 54.023438 213.507812 58.230469 Z M 213.507812 58.230469 " fill-opacity="1" fill-rule="evenodd"/><path fill="#8cbcdc" d="M 194.039062 115.382812 L 156.355469 77.703125 C 154.546875 75.890625 151.59375 75.890625 149.78125 77.703125 C 147.964844 79.519531 147.964844 82.464844 149.78125 84.28125 L 187.457031 121.957031 C 189.273438 123.777344 192.222656 123.777344 194.039062 121.957031 C 195.851562 120.148438 195.851562 117.195312 194.039062 115.382812 Z M 194.039062 115.382812 " fill-opacity="1" fill-rule="evenodd"/><g clip-path="url(#531ef65d34)"><path fill="#8cbcdc" d="M 203.441406 111.238281 C 203.441406 111.238281 202.503906 121.492188 201.859375 128.59375 C 201.625 131.1875 200.105469 133.484375 197.816406 134.71875 L 182.183594 143.132812 C 182.183594 143.132812 182.183594 129.109375 182.183594 129.109375 C 182.183594 126.542969 180.101562 124.457031 177.535156 124.457031 C 174.964844 124.457031 172.882812 126.542969 172.882812 129.109375 L 172.882812 150.925781 C 172.882812 152.5625 173.742188 154.082031 175.144531 154.917969 C 176.554688 155.757812 178.296875 155.800781 179.742188 155.019531 C 179.742188 155.019531 193.921875 147.382812 202.226562 142.910156 C 207.269531 140.199219 210.613281 135.140625 211.128906 129.4375 C 211.773438 122.335938 212.710938 112.078125 212.710938 112.078125 C 212.9375 109.519531 211.054688 107.257812 208.496094 107.027344 C 205.9375 106.792969 203.671875 108.679688 203.441406 111.238281 Z M 203.441406 111.238281 " fill-opacity="1" fill-rule="evenodd"/></g><path fill="#8cbcdc" d="M 159.664062 59.03125 C 159.664062 59.03125 149.402344 59.96875 142.300781 60.613281 C 136.601562 61.128906 131.539062 64.472656 128.828125 69.511719 C 124.355469 77.820312 116.722656 92 116.722656 92 C 115.941406 93.445312 115.984375 95.1875 116.820312 96.59375 C 117.65625 97.996094 119.179688 98.859375 120.816406 98.859375 L 142.628906 98.859375 C 145.199219 98.859375 147.28125 96.773438 147.28125 94.207031 C 147.28125 91.640625 145.199219 89.554688 142.628906 89.554688 L 128.605469 89.554688 L 137.023438 73.921875 C 138.257812 71.636719 140.550781 70.117188 143.144531 69.878906 C 150.246094 69.234375 160.5 68.296875 160.5 68.296875 C 163.0625 68.070312 164.949219 65.804688 164.710938 63.242188 C 164.484375 60.6875 162.21875 58.800781 159.664062 59.03125 Z M 159.664062 59.03125 " fill-opacity="1" fill-rule="evenodd"/><path fill="#8cbcdc" d="M 129.566406 113.777344 L 119.703125 123.640625 C 117.894531 125.457031 117.894531 128.402344 119.703125 130.21875 C 121.523438 132.03125 124.46875 132.03125 126.285156 130.21875 L 136.148438 120.359375 C 137.964844 118.539062 137.964844 115.59375 136.148438 113.777344 C 134.332031 111.960938 131.386719 111.960938 129.566406 113.777344 Z M 129.566406 113.777344 " fill-opacity="1" fill-rule="evenodd"/><path fill="#8cbcdc" d="M 140.476562 124.6875 L 121.886719 143.269531 C 120.070312 145.089844 120.070312 148.035156 121.886719 149.851562 C 123.707031 151.667969 126.652344 151.667969 128.46875 149.851562 L 147.054688 131.261719 C 148.871094 129.449219 148.871094 126.5 147.054688 124.6875 C 145.242188 122.871094 142.289062 122.871094 140.476562 124.6875 Z M 140.476562 124.6875 " fill-opacity="1" fill-rule="evenodd"/><path fill="#8cbcdc" d="M 151.382812 135.589844 L 141.519531 145.453125 C 139.707031 147.269531 139.707031 150.21875 141.519531 152.035156 C 143.335938 153.847656 146.285156 153.847656 148.101562 152.035156 L 157.964844 142.171875 C 159.78125 140.355469 159.78125 137.410156 157.964844 135.589844 C 156.144531 133.773438 153.199219 133.773438 151.382812 135.589844 Z M 151.382812 135.589844 " fill-opacity="1" fill-rule="evenodd"/></svg>