<svg xmlns="http://www.w3.org/2000/svg" xmlns:xlink="http://www.w3.org/1999/xlink" width="200" zoomAndPan="magnify" viewBox="0 0 150 112.499997" height="150" preserveAspectRatio="xMidYMid meet" version="1.0"><defs><clipPath id="5794ad3c7f"><path d="M 10.867188 6.539062 L 132 6.539062 L 132 105.101562 L 10.867188 105.101562 Z M 10.867188 6.539062 " clip-rule="nonzero"/></clipPath><clipPath id="47f4466fab"><path d="M 10.867188 30 L 132 30 L 132 35 L 10.867188 35 Z M 10.867188 30 " clip-rule="nonzero"/></clipPath><clipPath id="2693e418ca"><path d="M 109 46 L 139.296875 46 L 139.296875 87 L 109 87 Z M 109 46 " clip-rule="nonzero"/></clipPath></defs><g clip-path="url(#5794ad3c7f)"><path fill="#8cbcdc" d="M 122.078125 105.410156 L 20.257812 105.410156 C 15.082031 105.410156 10.867188 101.238281 10.867188 96.109375 L 10.867188 15.871094 C 10.867188 10.746094 15.082031 6.574219 20.257812 6.574219 L 122.078125 6.574219 C 127.25 6.574219 131.460938 10.746094 131.460938 15.871094 L 131.460938 48.792969 C 131.460938 49.902344 130.5625 50.796875 129.457031 50.796875 C 128.347656 50.796875 127.453125 49.902344 127.453125 48.792969 L 127.453125 15.871094 C 127.453125 12.957031 125.042969 10.582031 122.078125 10.582031 L 20.257812 10.582031 C 17.289062 10.582031 14.875 12.957031 14.875 15.871094 L 14.875 96.109375 C 14.875 99.027344 17.289062 101.402344 20.257812 101.402344 L 122.078125 101.402344 C 125.042969 101.402344 127.453125 99.027344 127.453125 96.109375 L 127.453125 80.710938 C 127.453125 79.605469 128.347656 78.707031 129.457031 78.707031 C 130.5625 78.707031 131.460938 79.605469 131.460938 80.710938 L 131.460938 96.109375 C 131.460938 101.238281 127.253906 105.410156 122.078125 105.410156 Z M 122.078125 105.410156 " fill-opacity="1" fill-rule="nonzero"/></g><g clip-path="url(#47f4466fab)"><path fill="#8cbcdc" d="M 129.457031 34.8125 L 12.871094 34.8125 C 11.765625 34.8125 10.867188 33.917969 10.867188 32.808594 C 10.867188 31.703125 11.765625 30.804688 12.871094 30.804688 L 129.457031 30.804688 C 130.5625 30.804688 131.460938 31.703125 131.460938 32.808594 C 131.460938 33.917969 130.5625 34.8125 129.457031 34.8125 Z M 129.457031 34.8125 " fill-opacity="1" fill-rule="nonzero"/></g><path fill="#8cbcdc" d="M 30.78125 27.402344 L 27.378906 27.402344 C 24.582031 27.402344 22.308594 25.148438 22.308594 22.378906 L 22.308594 19.007812 C 22.308594 16.238281 24.582031 13.984375 27.378906 13.984375 L 30.78125 13.984375 C 33.578125 13.984375 35.851562 16.238281 35.851562 19.007812 L 35.851562 22.378906 C 35.851562 25.148438 33.578125 27.402344 30.78125 27.402344 Z M 27.378906 17.992188 C 26.792969 17.992188 26.316406 18.449219 26.316406 19.007812 L 26.316406 22.378906 C 26.316406 22.9375 26.792969 23.394531 27.378906 23.394531 L 30.78125 23.394531 C 31.367188 23.394531 31.84375 22.9375 31.84375 22.378906 L 31.84375 19.007812 C 31.84375 18.449219 31.367188 17.992188 30.78125 17.992188 Z M 27.378906 17.992188 " fill-opacity="1" fill-rule="nonzero"/><path fill="#8cbcdc" d="M 113.253906 27.402344 L 80.238281 27.402344 C 76.5 27.402344 73.460938 24.394531 73.460938 20.695312 C 73.460938 16.996094 76.5 13.984375 80.238281 13.984375 L 113.253906 13.984375 C 116.992188 13.984375 120.03125 16.996094 120.03125 20.695312 C 120.03125 24.394531 116.992188 27.402344 113.253906 27.402344 Z M 80.238281 17.992188 C 78.710938 17.992188 77.46875 19.207031 77.46875 20.695312 C 77.46875 22.183594 78.710938 23.394531 80.238281 23.394531 L 113.253906 23.394531 C 114.78125 23.394531 116.023438 22.183594 116.023438 20.695312 C 116.023438 19.207031 114.78125 17.992188 113.253906 17.992188 Z M 80.238281 17.992188 " fill-opacity="1" fill-rule="nonzero"/><path fill="#8cbcdc" d="M 48.828125 27.402344 L 45.414062 27.402344 C 42.625 27.402344 40.355469 25.148438 40.355469 22.378906 L 40.355469 19.007812 C 40.355469 16.238281 42.625 13.984375 45.414062 13.984375 L 48.828125 13.984375 C 51.617188 13.984375 53.886719 16.238281 53.886719 19.007812 L 53.886719 22.378906 C 53.890625 25.148438 51.617188 27.402344 48.828125 27.402344 Z M 45.414062 17.992188 C 44.84375 17.992188 44.363281 18.457031 44.363281 19.007812 L 44.363281 22.378906 C 44.363281 22.929688 44.84375 23.394531 45.414062 23.394531 L 48.828125 23.394531 C 49.410156 23.394531 49.878906 22.9375 49.878906 22.378906 L 49.878906 19.007812 C 49.878906 18.449219 49.410156 17.992188 48.828125 17.992188 Z M 45.414062 17.992188 " fill-opacity="1" fill-rule="nonzero"/><g clip-path="url(#2693e418ca)"><path fill="#8cbcdc" d="M 111.292969 86.496094 C 110.484375 86.496094 109.722656 86.003906 109.417969 85.207031 C 109.023438 84.171875 109.542969 83.011719 110.574219 82.617188 C 115.132812 80.878906 119.632812 79.703125 123.945312 79.125 C 127.722656 78.621094 131.46875 78.5625 135.113281 78.945312 L 135.113281 51.054688 C 127.777344 50.203125 120.199219 51.316406 112.007812 54.445312 C 110.972656 54.839844 109.8125 54.320312 109.417969 53.289062 C 109.023438 52.253906 109.542969 51.09375 110.574219 50.699219 C 115.132812 48.960938 119.632812 47.785156 123.945312 47.210938 C 128.527344 46.597656 133.066406 46.636719 137.433594 47.332031 C 138.40625 47.484375 139.121094 48.324219 139.121094 49.308594 L 139.121094 81.226562 C 139.121094 81.8125 138.867188 82.371094 138.417969 82.75 C 137.972656 83.132812 137.382812 83.296875 136.804688 83.207031 C 128.941406 81.960938 120.828125 82.992188 112.007812 86.363281 C 111.769531 86.453125 111.527344 86.496094 111.292969 86.496094 Z M 111.292969 86.496094 " fill-opacity="1" fill-rule="nonzero"/></g><path fill="#8cbcdc" d="M 118.441406 62.007812 C 117.628906 62.007812 116.867188 61.511719 116.5625 60.707031 C 116.175781 59.671875 116.699219 58.515625 117.738281 58.128906 C 120.632812 57.042969 125.109375 55.765625 130.007812 55.859375 C 131.113281 55.878906 131.992188 56.792969 131.972656 57.898438 C 131.953125 58.992188 131.058594 59.867188 129.96875 59.867188 C 129.957031 59.867188 129.945312 59.867188 129.929688 59.863281 C 125.671875 59.785156 121.710938 60.917969 119.144531 61.878906 C 118.914062 61.96875 118.675781 62.007812 118.441406 62.007812 Z M 118.441406 62.007812 " fill-opacity="1" fill-rule="nonzero"/><path fill="#8cbcdc" d="M 118.441406 69.714844 C 117.628906 69.714844 116.867188 69.214844 116.5625 68.414062 C 116.175781 67.375 116.699219 66.222656 117.738281 65.832031 C 120.617188 64.75 125.082031 63.480469 130.003906 63.5625 C 131.109375 63.582031 131.992188 64.492188 131.972656 65.597656 C 131.953125 66.707031 131.042969 67.585938 129.933594 67.570312 C 125.421875 67.492188 121.238281 68.800781 119.144531 69.585938 C 118.914062 69.671875 118.675781 69.714844 118.441406 69.714844 Z M 118.441406 69.714844 " fill-opacity="1" fill-rule="nonzero"/><path fill="#8cbcdc" d="M 118.441406 77.425781 C 117.628906 77.425781 116.867188 76.929688 116.5625 76.125 C 116.175781 75.089844 116.699219 73.933594 117.738281 73.546875 C 120.628906 72.460938 125.105469 71.1875 130.003906 71.265625 C 131.109375 71.285156 131.992188 72.195312 131.972656 73.304688 C 131.953125 74.410156 131.042969 75.289062 129.933594 75.273438 C 125.667969 75.203125 121.710938 76.335938 119.144531 77.296875 C 118.914062 77.386719 118.675781 77.425781 118.441406 77.425781 Z M 118.441406 77.425781 " fill-opacity="1" fill-rule="nonzero"/><path fill="#8cbcdc" d="M 111.289062 86.492188 C 111.050781 86.492188 110.808594 86.449219 110.574219 86.363281 C 101.753906 82.992188 93.640625 81.960938 85.777344 83.207031 C 85.199219 83.296875 84.609375 83.132812 84.164062 82.75 C 83.714844 82.371094 83.460938 81.8125 83.460938 81.226562 L 83.460938 49.308594 C 83.460938 48.324219 84.175781 47.484375 85.148438 47.332031 C 89.515625 46.636719 94.054688 46.597656 98.636719 47.207031 C 102.949219 47.785156 107.449219 48.960938 112.007812 50.699219 C 112.78125 50.996094 113.296875 51.742188 113.296875 52.574219 L 113.296875 84.488281 C 113.296875 85.148438 112.96875 85.765625 112.425781 86.140625 C 112.089844 86.375 111.691406 86.492188 111.289062 86.492188 Z M 92.234375 78.695312 C 94.347656 78.695312 96.488281 78.839844 98.636719 79.125 C 102.089844 79.585938 105.660156 80.433594 109.285156 81.644531 L 109.285156 53.96875 C 101.585938 51.203125 94.417969 50.246094 87.46875 51.054688 L 87.46875 78.941406 C 89.039062 78.777344 90.628906 78.695312 92.234375 78.695312 Z M 92.234375 78.695312 " fill-opacity="1" fill-rule="nonzero"/><path fill="#8cbcdc" d="M 104.140625 62.007812 C 103.90625 62.007812 103.671875 61.96875 103.441406 61.882812 C 100.859375 60.917969 96.894531 59.785156 92.652344 59.863281 C 91.542969 59.886719 90.628906 59.003906 90.609375 57.898438 C 90.589844 56.792969 91.46875 55.878906 92.574219 55.859375 C 97.453125 55.765625 101.9375 57.042969 104.84375 58.128906 C 105.878906 58.515625 106.40625 59.667969 106.019531 60.707031 C 105.71875 61.511719 104.953125 62.007812 104.140625 62.007812 Z M 104.140625 62.007812 " fill-opacity="1" fill-rule="nonzero"/><path fill="#8cbcdc" d="M 104.140625 69.714844 C 103.90625 69.714844 103.671875 69.671875 103.441406 69.585938 C 101.339844 68.800781 97.140625 67.492188 92.648438 67.570312 C 92.636719 67.570312 92.625 67.570312 92.613281 67.570312 C 91.519531 67.570312 90.628906 66.695312 90.609375 65.597656 C 90.589844 64.492188 91.472656 63.582031 92.578125 63.5625 C 97.476562 63.484375 101.953125 64.75 104.84375 65.832031 C 105.878906 66.21875 106.40625 67.375 106.019531 68.410156 C 105.71875 69.214844 104.953125 69.714844 104.140625 69.714844 Z M 104.140625 69.714844 " fill-opacity="1" fill-rule="nonzero"/><path fill="#8cbcdc" d="M 104.140625 77.425781 C 103.90625 77.425781 103.671875 77.386719 103.441406 77.300781 C 100.863281 76.335938 96.894531 75.199219 92.648438 75.273438 C 91.535156 75.289062 90.628906 74.410156 90.609375 73.304688 C 90.589844 72.195312 91.472656 71.285156 92.578125 71.265625 C 97.457031 71.183594 101.941406 72.460938 104.84375 73.546875 C 105.878906 73.933594 106.40625 75.085938 106.019531 76.125 C 105.71875 76.929688 104.953125 77.425781 104.140625 77.425781 Z M 104.140625 77.425781 " fill-opacity="1" fill-rule="nonzero"/><path fill="#8cbcdc" d="M 50.917969 93.507812 L 47.425781 93.507812 C 45.234375 93.507812 43.460938 91.878906 43.019531 89.457031 L 42.617188 87.246094 C 41.757812 86.960938 40.921875 86.621094 40.113281 86.222656 L 38.222656 87.515625 C 36.191406 88.910156 33.789062 88.820312 32.25 87.289062 L 29.78125 84.855469 C 29.777344 84.855469 29.773438 84.851562 29.769531 84.847656 C 28.222656 83.304688 28.132812 80.90625 29.539062 78.882812 L 30.835938 77.035156 C 30.441406 76.242188 30.101562 75.429688 29.816406 74.605469 L 27.566406 74.199219 C 25.125 73.769531 23.480469 72.011719 23.480469 69.832031 L 23.480469 66.382812 C 23.480469 64.214844 25.121094 62.457031 27.558594 62.007812 C 27.5625 62.007812 27.566406 62.003906 27.570312 62.003906 L 29.816406 61.605469 C 30.101562 60.78125 30.441406 59.972656 30.835938 59.179688 L 29.542969 57.335938 C 28.132812 55.308594 28.222656 52.910156 29.769531 51.367188 C 29.773438 51.363281 29.777344 51.363281 29.78125 51.359375 L 32.25 48.925781 C 33.800781 47.386719 36.199219 47.296875 38.226562 48.703125 L 40.113281 49.992188 C 40.917969 49.597656 41.757812 49.253906 42.617188 48.964844 L 43.019531 46.757812 C 43.460938 44.335938 45.234375 42.707031 47.425781 42.707031 L 50.917969 42.707031 C 53.105469 42.707031 54.871094 44.335938 55.316406 46.757812 L 55.722656 48.964844 C 56.582031 49.253906 57.417969 49.597656 58.222656 49.992188 L 60.113281 48.699219 C 62.136719 47.304688 64.542969 47.394531 66.09375 48.925781 L 68.558594 51.359375 C 70.113281 52.898438 70.210938 55.296875 68.796875 57.332031 L 67.503906 59.171875 C 67.894531 59.953125 68.234375 60.765625 68.519531 61.605469 L 70.773438 62.003906 C 70.78125 62.003906 70.785156 62.007812 70.789062 62.007812 C 73.222656 62.457031 74.855469 64.21875 74.855469 66.382812 L 74.855469 69.832031 C 74.855469 72.011719 73.214844 73.765625 70.777344 74.199219 L 68.519531 74.605469 C 68.234375 75.429688 67.894531 76.242188 67.5 77.035156 L 68.789062 78.878906 C 70.210938 80.917969 70.113281 83.316406 68.558594 84.855469 L 66.09375 87.289062 C 64.554688 88.808594 62.152344 88.902344 60.117188 87.519531 L 58.222656 86.222656 C 57.417969 86.617188 56.582031 86.960938 55.722656 87.25 L 55.316406 89.460938 C 54.871094 91.878906 53.105469 93.507812 50.917969 93.507812 Z M 39.980469 81.882812 C 40.324219 81.882812 40.667969 81.96875 40.976562 82.148438 C 42.195312 82.84375 43.507812 83.378906 44.878906 83.738281 C 45.632812 83.9375 46.203125 84.554688 46.34375 85.320312 L 46.964844 88.738281 C 47.019531 89.054688 47.203125 89.5 47.425781 89.5 L 50.917969 89.5 C 51.113281 89.5 51.304688 89.101562 51.371094 88.738281 L 52.003906 85.324219 C 52.144531 84.566406 52.707031 83.953125 53.453125 83.753906 C 54.835938 83.378906 56.148438 82.839844 57.359375 82.148438 C 58.023438 81.765625 58.851562 81.796875 59.484375 82.230469 L 62.375 84.210938 C 62.695312 84.425781 63.132812 84.578125 63.277344 84.4375 L 65.742188 82.003906 C 65.863281 81.882812 65.71875 81.476562 65.503906 81.175781 L 63.507812 78.328125 C 63.058594 77.6875 63.023438 76.847656 63.414062 76.171875 C 64.128906 74.9375 64.671875 73.644531 65.027344 72.328125 C 65.230469 71.578125 65.847656 71.015625 66.609375 70.878906 L 70.070312 70.253906 C 70.515625 70.175781 70.847656 69.964844 70.847656 69.832031 L 70.847656 66.382812 C 70.847656 66.230469 70.484375 66.027344 70.066406 65.949219 L 66.613281 65.335938 C 65.847656 65.203125 65.230469 64.636719 65.027344 63.886719 C 64.660156 62.523438 64.121094 61.238281 63.421875 60.058594 C 63.023438 59.382812 63.054688 58.535156 63.507812 57.890625 L 65.511719 55.035156 C 65.71875 54.738281 65.863281 54.332031 65.742188 54.214844 L 63.277344 51.777344 C 63.128906 51.632812 62.707031 51.777344 62.378906 52.003906 L 59.484375 53.984375 C 58.851562 54.417969 58.023438 54.449219 57.359375 54.070312 C 56.148438 53.375 54.835938 52.835938 53.453125 52.460938 C 52.707031 52.261719 52.144531 51.648438 52.003906 50.890625 L 51.375 47.484375 C 51.304688 47.113281 51.113281 46.714844 50.917969 46.714844 L 47.425781 46.714844 C 47.203125 46.714844 47.019531 47.164062 46.964844 47.480469 L 46.34375 50.886719 C 46.203125 51.648438 45.636719 52.261719 44.890625 52.460938 C 43.503906 52.835938 42.1875 53.375 40.976562 54.066406 C 40.3125 54.449219 39.484375 54.417969 38.851562 53.984375 L 35.960938 52.007812 C 35.957031 52.003906 35.953125 52 35.949219 52 C 35.597656 51.753906 35.199219 51.648438 35.078125 51.769531 C 35.074219 51.773438 35.070312 51.777344 35.066406 51.78125 L 32.597656 54.207031 C 32.472656 54.339844 32.621094 54.742188 32.832031 55.042969 L 34.828125 57.890625 C 35.277344 58.527344 35.3125 59.371094 34.921875 60.042969 C 34.207031 61.277344 33.664062 62.570312 33.308594 63.886719 C 33.105469 64.636719 32.488281 65.203125 31.722656 65.335938 L 28.28125 65.949219 C 27.859375 66.027344 27.488281 66.230469 27.488281 66.382812 L 27.488281 69.832031 C 27.488281 69.964844 27.824219 70.175781 28.269531 70.253906 L 31.730469 70.878906 C 32.492188 71.015625 33.105469 71.578125 33.308594 72.328125 C 33.664062 73.644531 34.207031 74.9375 34.921875 76.171875 C 35.3125 76.847656 35.277344 77.6875 34.828125 78.324219 L 32.824219 81.179688 C 32.621094 81.476562 32.472656 81.878906 32.597656 82.007812 L 35.066406 84.433594 C 35.070312 84.4375 35.074219 84.441406 35.078125 84.445312 C 35.195312 84.5625 35.605469 84.453125 35.960938 84.210938 L 38.851562 82.230469 C 39.191406 82 39.585938 81.882812 39.980469 81.882812 Z M 39.980469 81.882812 " fill-opacity="1" fill-rule="nonzero"/><path fill="#8cbcdc" d="M 49.171875 79.101562 C 43.046875 79.101562 38.066406 74.167969 38.066406 68.109375 C 38.066406 62.046875 43.046875 57.113281 49.171875 57.113281 C 55.296875 57.113281 60.277344 62.046875 60.277344 68.109375 C 60.277344 74.167969 55.296875 79.101562 49.171875 79.101562 Z M 49.171875 61.121094 C 45.257812 61.121094 42.074219 64.253906 42.074219 68.109375 C 42.074219 71.960938 45.257812 75.09375 49.171875 75.09375 C 53.085938 75.09375 56.269531 71.960938 56.269531 68.109375 C 56.269531 64.253906 53.085938 61.121094 49.171875 61.121094 Z M 49.171875 61.121094 " fill-opacity="1" fill-rule="nonzero"/></svg>