<svg xmlns="http://www.w3.org/2000/svg" xmlns:xlink="http://www.w3.org/1999/xlink" width="500" zoomAndPan="magnify" viewBox="0 0 375 168.749997" height="225" preserveAspectRatio="xMidYMid meet" version="1.0"><defs><clipPath id="fe80808bff"><path d="M 67.210938 74 L 182 74 L 182 119.757812 L 67.210938 119.757812 Z M 67.210938 74 " clip-rule="nonzero"/></clipPath><clipPath id="4b1b1918cc"><path d="M 135 48.613281 L 186 48.613281 L 186 102 L 135 102 Z M 135 48.613281 " clip-rule="nonzero"/></clipPath><clipPath id="2c7ec5fddd"><path d="M 193 74 L 307.605469 74 L 307.605469 119.757812 L 193 119.757812 Z M 193 74 " clip-rule="nonzero"/></clipPath><clipPath id="1108af2daa"><path d="M 189 48.613281 L 240 48.613281 L 240 102 L 189 102 Z M 189 48.613281 " clip-rule="nonzero"/></clipPath></defs><g clip-path="url(#fe80808bff)"><path fill="#8cbcdc" d="M 67.492188 74.214844 L 90.78125 119.875 L 77.402344 83.5 C 77.402344 83.5 150.109375 89.609375 181.820312 119.875 C 181.820312 119.875 170.175781 84.414062 67.492188 74.214844 Z M 67.492188 74.214844 " fill-opacity="1" fill-rule="nonzero"/></g><path fill="#8cbcdc" d="M 104.878906 57.46875 L 104.878906 74.214844 C 157.039062 80.902344 185.8125 110.734375 185.8125 110.734375 C 164.785156 73.636719 104.878906 57.46875 104.878906 57.46875 Z M 104.878906 57.46875 " fill-opacity="1" fill-rule="nonzero"/><g clip-path="url(#4b1b1918cc)"><path fill="#8cbcdc" d="M 135.53125 48.613281 L 135.53125 63.433594 C 168.683594 76.8125 185.765625 101.832031 185.765625 101.832031 C 174.070312 67.234375 135.53125 48.613281 135.53125 48.613281 Z M 135.53125 48.613281 " fill-opacity="1" fill-rule="nonzero"/></g><g clip-path="url(#2c7ec5fddd)"><path fill="#8cbcdc" d="M 307.5 74.214844 C 204.820312 84.414062 193.175781 119.875 193.175781 119.875 C 224.882812 89.609375 297.589844 83.5 297.589844 83.5 L 284.210938 119.875 Z M 307.5 74.214844 " fill-opacity="1" fill-rule="nonzero"/></g><path fill="#8cbcdc" d="M 270.160156 57.46875 C 270.160156 57.46875 210.253906 73.585938 189.226562 110.6875 C 189.226562 110.6875 218.003906 80.851562 270.160156 74.164062 Z M 270.160156 57.46875 " fill-opacity="1" fill-rule="nonzero"/><g clip-path="url(#1108af2daa)"><path fill="#8cbcdc" d="M 239.460938 63.433594 L 239.460938 48.613281 C 239.460938 48.613281 200.921875 67.234375 189.226562 101.832031 C 189.226562 101.832031 206.308594 76.8125 239.460938 63.433594 Z M 239.460938 63.433594 " fill-opacity="1" fill-rule="nonzero"/></g></svg>